<svg width="35" height="33" viewBox="0 0 35 33" fill="none" xmlns="http://www.w3.org/2000/svg">
<path fill-rule="evenodd" clip-rule="evenodd" d="M32.7535 32.3333C33.81 32.3333 34.6667 31.5425 34.6667 30.5672V2.0994C34.6667 1.1238 33.8099 0.333313 32.7535 0.333313H1.91328C0.856363 0.333313 0 1.12392 0 2.0994V30.5671C0 31.5425 0.856363 32.3332 1.91328 32.3332H32.7535V32.3333ZM23.9195 32.3333V19.9412H28.4256L29.1002 15.1117H23.9193V12.0283C23.9193 10.6301 24.3399 9.67727 26.5122 9.67727L29.2826 9.67607V5.35665C28.8034 5.2979 27.1588 5.16637 25.2456 5.16637C21.2511 5.16637 18.5164 7.41697 18.5164 11.5502V15.1117H13.9987V19.9412H18.5164V32.3332H23.9195V32.3333Z" fill="#0F2E68"/>
</svg>
