<svg width="36" height="37" viewBox="0 0 36 37" fill="none" xmlns="http://www.w3.org/2000/svg">
<g clip-path="url(#clip0_174_3530)">
<path d="M35.1589 19.0034C35.1589 17.5285 35.0392 16.4523 34.7802 15.3361H17.9382V21.9931H27.8241C27.6248 23.6475 26.5486 26.1389 24.1568 27.813L24.1232 28.0359L29.4483 32.1612L29.8173 32.198C33.2055 29.0687 35.1589 24.4646 35.1589 19.0034Z" fill="#4285F4"/>
<path d="M17.9381 36.543C22.7814 36.543 26.8473 34.9485 29.8172 32.198L24.1567 27.813C22.6419 28.8694 20.6089 29.6068 17.9381 29.6068C13.1945 29.6068 9.16843 26.4777 7.73324 22.1526L7.52287 22.1705L1.98574 26.4557L1.91333 26.657C4.86313 32.5168 10.9223 36.543 17.9381 36.543Z" fill="#34A853"/>
<path d="M7.73327 22.1526C7.35458 21.0365 7.13542 19.8405 7.13542 18.6048C7.13542 17.369 7.35458 16.1732 7.71334 15.0571L7.70331 14.8193L2.09679 10.4653L1.91336 10.5525C0.697603 12.9842 0 15.7148 0 18.6048C0 21.4949 0.697603 24.2254 1.91336 26.657L7.73327 22.1526Z" fill="#FBBC05"/>
<path d="M17.9381 7.60273C21.3065 7.60273 23.5786 9.05771 24.8742 10.2736L29.9367 5.33061C26.8275 2.44058 22.7814 0.666687 17.9381 0.666687C10.9223 0.666687 4.86313 4.69278 1.91333 10.5525L7.71331 15.0571C9.16843 10.732 13.1945 7.60273 17.9381 7.60273Z" fill="#EB4335"/>
</g>
<defs>
<clipPath id="clip0_174_3530">
<rect width="36" height="36" fill="white" transform="translate(0 0.666687)"/>
</clipPath>
</defs>
</svg>
