<svg width="40" height="40" viewBox="0 0 40 40" fill="none" xmlns="http://www.w3.org/2000/svg">
<path d="M2.37901 3.31149C1.9911 4.03181 1.80036 4.92422 1.41888 6.70502L0.137278 12.6877C-0.0443562 13.5034 -0.0457631 14.3452 0.133144 15.1614C0.312051 15.9777 0.667507 16.7512 1.17775 17.4348C1.688 18.1183 2.34229 18.6974 3.10059 19.1366C3.85889 19.5759 4.70522 19.866 5.58779 19.9893C6.47036 20.1126 7.37059 20.0664 8.23337 19.8535C9.09615 19.6407 9.90332 19.2657 10.6055 18.7515C11.3076 18.2373 11.89 17.5947 12.3169 16.8631C12.7438 16.1314 13.0063 15.3262 13.0883 14.4965L13.2384 13.1159C13.1571 13.994 13.273 14.8782 13.5785 15.7121C13.8841 16.546 14.3726 17.3112 15.0128 17.9589C15.653 18.6066 16.4309 19.1224 17.2968 19.4735C18.1627 19.8246 19.0975 20.0032 20.0414 19.9979C20.9854 19.9925 21.9178 19.8034 22.7791 19.4427C23.6404 19.0819 24.4116 18.5573 25.0434 17.9025C25.6752 17.2477 26.1538 16.477 26.4486 15.6397C26.7433 14.8024 26.8478 13.917 26.7552 13.0399L26.9117 14.4965C26.9937 15.3262 27.2562 16.1314 27.6831 16.8631C28.11 17.5947 28.6924 18.2373 29.3945 18.7515C30.0967 19.2657 30.9039 19.6407 31.7666 19.8535C32.6294 20.0664 33.5296 20.1126 34.4122 19.9893C35.2948 19.866 36.1411 19.5759 36.8994 19.1366C37.6577 18.6974 38.312 18.1183 38.8223 17.4348C39.3325 16.7512 39.688 15.9777 39.8669 15.1614C40.0458 14.3452 40.0444 13.5034 39.8627 12.6877L38.5811 6.70502C38.1996 4.92422 38.0089 4.03382 37.621 3.31149C37.2168 2.55923 36.6477 1.89473 35.9506 1.36111C35.2535 0.827502 34.444 0.436708 33.5747 0.214097C32.7389 2.25173e-07 31.7659 0 29.8199 0H10.1801C8.2341 0 7.26111 2.25173e-07 6.42528 0.214097C5.55595 0.436708 4.74647 0.827502 4.04939 1.36111C3.35231 1.89473 2.7832 2.55923 2.37901 3.31149ZM33.4354 23.0104C35.1099 23.0143 36.757 22.6138 38.2168 21.8478V24.0108C38.2168 31.5562 38.2168 35.3299 35.705 37.673C33.684 39.5618 30.6729 39.928 25.3579 40V33.0149C25.3579 31.144 25.3579 30.2096 24.9271 29.5133C24.645 29.0571 24.2392 28.6782 23.7505 28.4148C23.0047 28.0126 22.0038 28.0126 20 28.0126C17.9962 28.0126 16.9953 28.0126 16.2495 28.4148C15.7608 28.6782 15.355 29.0571 15.0729 29.5133C14.6421 30.2096 14.6421 31.144 14.6421 33.0149V40C9.32711 39.928 6.31598 39.5598 4.29499 37.673C1.78322 35.3299 1.78322 31.5562 1.78322 24.0108V21.8478C3.24359 22.6142 4.8915 23.0147 6.56673 23.0104C9.04344 23.0118 11.4279 22.1333 13.2362 20.5532C15.0787 22.1386 17.4944 23.0161 20 23.0104C22.5056 23.0161 24.9213 22.1386 26.7638 20.5532C28.5721 22.1333 30.9587 23.0118 33.4354 23.0104Z" fill="url(#paint0_linear_213_5434)"/>
<defs>
<linearGradient id="paint0_linear_213_5434" x1="0" y1="20" x2="40" y2="20" gradientUnits="userSpaceOnUse">
<stop stop-color="#16D0E0"/>
<stop offset="1" stop-color="#112363"/>
</linearGradient>
</defs>
</svg>
