<svg width="40" height="36" viewBox="0 0 40 36" fill="none" xmlns="http://www.w3.org/2000/svg">
<path d="M22.5 3.625C22.5 2.7962 22.2366 2.00134 21.7678 1.41529C21.2989 0.82924 20.663 0.5 20 0.5C19.337 0.5 18.7011 0.82924 18.2322 1.41529C17.7634 2.00134 17.5 2.7962 17.5 3.625C17.5 4.4538 17.7634 5.24866 18.2322 5.83471C18.7011 6.42076 19.337 6.75 20 6.75C20.663 6.75 21.2989 6.42076 21.7678 5.83471C22.2366 5.24866 22.5 4.4538 22.5 3.625ZM9 14.25C9.66304 14.25 10.2989 13.9208 10.7678 13.3347C11.2366 12.7487 11.5 11.9538 11.5 11.125C11.5 10.2962 11.2366 9.50134 10.7678 8.91529C10.2989 8.32924 9.66304 8 9 8C8.33696 8 7.70107 8.32924 7.23223 8.91529C6.76339 9.50134 6.5 10.2962 6.5 11.125C6.5 11.9538 6.76339 12.7487 7.23223 13.3347C7.70107 13.9208 8.33696 14.25 9 14.25ZM2 30.5C0.89375 30.5 0 31.6172 0 33C0 34.3828 0.89375 35.5 2 35.5H38C39.1063 35.5 40 34.3828 40 33C40 31.6172 39.1063 30.5 38 30.5H2ZM31 14.25C31.663 14.25 32.2989 13.9208 32.7678 13.3347C33.2366 12.7487 33.5 11.9538 33.5 11.125C33.5 10.2962 33.2366 9.50134 32.7678 8.91529C32.2989 8.32924 31.663 8 31 8C30.337 8 29.7011 8.32924 29.2322 8.91529C28.7634 9.50134 28.5 10.2962 28.5 11.125C28.5 11.9538 28.7634 12.7487 29.2322 13.3347C29.7011 13.9208 30.337 14.25 31 14.25ZM12.5 22.4922L14.1812 26.3906C14.575 27.3047 15.4812 27.6406 16.2125 27.1562C16.9438 26.6719 17.2125 25.5312 16.825 24.6172L14.5562 19.3438C14.6625 19.2109 14.7562 19.0625 14.825 18.8906L16.5 14.9922V19.25C16.5 20.6328 17.3937 21.75 18.5 21.75H21.5C22.6063 21.75 23.5 20.6328 23.5 19.25V14.9922L25.1812 18.8906C25.2563 19.0625 25.3438 19.2109 25.45 19.3438L23.1812 24.6172C22.7875 25.5312 23.0625 26.6641 23.7938 27.1562C24.525 27.6484 25.4313 27.3047 25.825 26.3906L27.5 22.4922V25.5C27.5 26.8828 28.3937 28 29.5 28H32.5C33.6063 28 34.5 26.8828 34.5 25.5V22.4922L36.1813 26.3906C36.575 27.3047 37.4813 27.6406 38.2125 27.1562C38.9438 26.6719 39.2125 25.5312 38.825 24.6172L36.4562 19.125C35.5 16.8984 33.6375 15.5078 31.6125 15.5078H30.3937C29.375 15.5078 28.4 15.8594 27.5562 16.4922L25.4562 11.625C24.5 9.39844 22.6375 8.00781 20.6125 8.00781H19.3937C17.3687 8.00781 15.5125 9.39844 14.55 11.625L12.45 16.4922C11.6062 15.8594 10.6313 15.5078 9.6125 15.5078H8.39375C6.36875 15.5078 4.5125 16.8984 3.55 19.125L1.18125 24.6094C0.7875 25.5234 1.0625 26.6562 1.79375 27.1484C2.525 27.6406 3.43125 27.2969 3.825 26.3828L5.5 22.4922V25.5C5.5 26.8828 6.39375 28 7.5 28H10.5C11.6062 28 12.5 26.8828 12.5 25.5V22.4922Z" fill="url(#paint0_linear_213_5436)"/>
<defs>
<linearGradient id="paint0_linear_213_5436" x1="0" y1="18" x2="40" y2="18" gradientUnits="userSpaceOnUse">
<stop stop-color="#16D0E0"/>
<stop offset="1" stop-color="#112363"/>
</linearGradient>
</defs>
</svg>
