<svg width="87" height="75" viewBox="0 0 87 75" fill="none" xmlns="http://www.w3.org/2000/svg">
<path d="M60.8313 53.5844C64.6656 51.4532 64.1688 43.2407 59.725 35.2282C57.8188 31.7782 55.475 28.9844 53.1313 27.0313C50.3286 29.111 46.9338 30.239 43.4438 30.2501C39.9484 30.2423 36.5476 29.1142 33.7406 27.0313C31.3969 28.9844 29.0594 31.7813 27.1469 35.2282C22.7 43.2376 22.2094 51.4532 26.0531 53.5844C27.7656 54.5594 29.5719 53.8282 31.4344 52.0344C31.0855 53.967 30.9109 55.9269 30.9125 57.8907C30.9125 67.0719 34.475 74.4907 38.8594 74.4907C41.5031 74.4907 42.8125 71.7876 43.4406 67.6532C44.0656 71.7594 45.3781 74.4907 48.0031 74.4907C52.3688 74.4907 55.9594 67.0688 55.9594 57.8907C55.9594 55.8282 55.7656 53.8595 55.4344 52.0376C57.3094 53.8344 59.1094 54.5782 60.8281 53.5907L60.8313 53.5844ZM43.4375 27.1251C45.2105 27.1515 46.9711 26.8251 48.6168 26.1648C50.2625 25.5045 51.7604 24.5234 53.0233 23.2787C54.2863 22.034 55.2891 20.5506 55.9734 18.9147C56.6576 17.2788 57.0097 15.5232 57.0091 13.75C57.0084 11.9768 56.6551 10.2214 55.9697 8.586C55.2843 6.95061 54.2805 5.46787 53.0167 4.22408C51.7528 2.98028 50.2542 2.00028 48.6081 1.3411C46.9619 0.681919 45.2011 0.356726 43.4281 0.384447C39.9175 0.439336 36.5693 1.87277 34.1066 4.37522C31.6438 6.87766 30.2641 10.2483 30.2653 13.7594C30.2665 17.2704 31.6486 20.6401 34.1132 23.1408C36.5777 25.6416 39.9269 27.0726 43.4375 27.1251ZM70.2938 35.6063C73.1494 35.5229 75.8601 34.3298 77.8505 32.2804C79.8408 30.231 80.9542 27.4866 80.9542 24.6298C80.9542 21.7729 79.8408 19.0285 77.8505 16.9791C75.8601 14.9297 73.1494 13.7367 70.2938 13.6532C67.3818 13.6536 64.5892 14.8108 62.5304 16.8702C60.4716 18.9296 59.3152 21.7225 59.3156 24.6344C59.3161 27.5464 60.4732 30.339 62.5326 32.3978C64.592 34.4566 67.3849 35.613 70.2969 35.6126L70.2938 35.6063ZM83.6688 42.2626C82.1 39.4251 80.1813 37.1313 78.2563 35.5282C75.9536 37.2343 73.1658 38.1596 70.3 38.1688C67.9375 38.1688 65.7375 37.5219 63.8125 36.4501C65.3625 39.8657 66.3219 43.3251 66.5 46.4188C66.7938 51.1563 65.3125 54.6688 62.35 56.3094C61.7155 56.6593 61.025 56.8962 60.3094 57.0094C60.1313 58.2344 60.0094 59.5094 60.0094 60.8532C60.0094 68.3938 62.9313 74.4844 66.5344 74.4844C68.7031 74.4844 69.7844 72.2657 70.2969 68.8719C70.8063 72.2469 71.8844 74.4844 74.0469 74.4844C77.625 74.4844 80.5781 68.3907 80.5781 60.8595C80.5781 59.1626 80.4125 57.5469 80.1406 56.0469C81.6781 57.5251 83.1594 58.1344 84.5719 57.3219C87.7188 55.5719 87.3125 48.8282 83.6656 42.2594L83.6688 42.2626ZM16.5813 35.6063C18.7516 35.6051 20.8729 34.9604 22.6769 33.7537C24.4809 32.547 25.8867 30.8325 26.7164 28.8269C27.5461 26.8214 27.7626 24.6149 27.3384 22.4864C26.9142 20.3578 25.8684 18.4029 24.3333 16.8686C22.7982 15.3344 20.8426 14.2897 18.7138 13.8667C16.5851 13.4438 14.3787 13.6615 12.3736 14.4923C10.3686 15.3232 8.65487 16.7299 7.4492 18.5346C6.24353 20.3393 5.60002 22.4609 5.60001 24.6313C5.60084 27.5435 6.75806 30.3361 8.81726 32.3953C10.8765 34.4545 13.6691 35.6117 16.5813 35.6126V35.6063ZM24.5031 56.3001C19.5281 53.5344 19.0719 45.2876 23.0781 36.4438C21.098 37.5683 18.8615 38.1635 16.5844 38.1719C13.5969 38.1719 10.8594 37.1719 8.61564 35.5282C6.69376 37.1282 4.77814 39.4219 3.20314 42.2563C-0.443735 48.8313 -0.843735 55.5751 2.30627 57.3188C3.71252 58.1251 5.19689 57.5219 6.72502 56.0501C6.44698 57.6371 6.30584 59.2451 6.30314 60.8563C6.30314 68.3938 9.22501 74.4813 12.8281 74.4813C14.9969 74.4813 16.0781 72.2626 16.5906 68.8719C17.1063 72.2469 18.1844 74.4844 20.3406 74.4844C23.925 74.4844 26.8719 68.3907 26.8719 60.8595C26.8719 59.5063 26.7469 58.2282 26.5688 57.0032C25.8452 56.8904 25.1471 56.6514 24.5063 56.2969L24.5031 56.3001Z" fill="white"/>
</svg>
