<svg width="348" height="282" viewBox="0 0 348 282" fill="none" xmlns="http://www.w3.org/2000/svg">
<g filter="url(#filter0_dddd_702_421)">
<mask id="mask0_702_421" style="mask-type:alpha" maskUnits="userSpaceOnUse" x="168" y="27" width="242" height="201">
<rect width="242" height="200" transform="matrix(-1 0 0 1 410 27.0005)" fill="url(#paint0_radial_702_421)"/>
</mask>
<g mask="url(#mask0_702_421)">
<circle cx="125" cy="125" r="125" transform="matrix(0.924159 0.382008 -0.924159 0.382008 168 32.0005)" stroke="url(#paint1_linear_702_421)" stroke-width="4" stroke-linecap="round" stroke-dasharray="0.1 12"/>
</g>
<mask id="mask1_702_421" style="mask-type:alpha" maskUnits="userSpaceOnUse" x="-74" y="27" width="242" height="201">
<rect x="-74" y="27.0005" width="242" height="200" fill="#D9D9D9"/>
</mask>
<g mask="url(#mask1_702_421)">
<circle cx="81.25" cy="81.25" r="81.25" transform="matrix(0.924159 0.382008 -0.924159 0.382008 168 89.1006)" stroke="url(#paint2_linear_702_421)" stroke-width="4" stroke-linecap="round" stroke-dasharray="0.07 7.8"/>
</g>
<mask id="mask2_702_421" style="mask-type:alpha" maskUnits="userSpaceOnUse" x="168" y="27" width="242" height="201">
<rect width="242" height="200" transform="matrix(-1 0 0 1 410 27.0005)" fill="#D9D9D9"/>
</mask>
<g mask="url(#mask2_702_421)">
<circle cx="56.875" cy="56.875" r="56.875" transform="matrix(0.924159 0.382008 -0.924159 0.382008 168 94.5005)" stroke="url(#paint3_linear_702_421)" stroke-width="4" stroke-linecap="round" stroke-dasharray="0.05 5.46"/>
</g>
<mask id="mask3_702_421" style="mask-type:alpha" maskUnits="userSpaceOnUse" x="-74" y="27" width="242" height="201">
<rect x="-74" y="27.0005" width="242" height="200" fill="#D9D9D9"/>
</mask>
<g mask="url(#mask3_702_421)">
<circle cx="39.8125" cy="39.8125" r="39.8125" transform="matrix(0.924159 0.382008 -0.924159 0.382008 168 116.801)" stroke="url(#paint4_linear_702_421)" stroke-width="4" stroke-linecap="round" stroke-dasharray="0.03 3.82"/>
</g>
<mask id="mask4_702_421" style="mask-type:alpha" maskUnits="userSpaceOnUse" x="168" y="27" width="242" height="201">
<rect width="242" height="200" transform="matrix(-1 0 0 1 410 27.0005)" fill="#D9D9D9"/>
</mask>
<g mask="url(#mask4_702_421)">
<circle cx="27.8688" cy="27.8688" r="27.8688" transform="matrix(0.924159 0.382008 -0.924159 0.382008 168 119.5)" stroke="url(#paint5_linear_702_421)" stroke-width="4" stroke-linecap="round" stroke-dasharray="0.02 2.68"/>
</g>
<mask id="mask5_702_421" style="mask-type:alpha" maskUnits="userSpaceOnUse" x="-74" y="27" width="242" height="201">
<rect x="-74" y="27.0005" width="242" height="200" fill="#D9D9D9"/>
</mask>
<g mask="url(#mask5_702_421)">
<circle cx="19.5081" cy="19.5081" r="19.5081" transform="matrix(0.924159 0.382009 -0.924159 0.382009 168 130.4)" stroke="url(#paint6_linear_702_421)" stroke-width="4" stroke-linecap="round" stroke-dasharray="0.02 1.87"/>
</g>
<mask id="mask6_702_421" style="mask-type:alpha" maskUnits="userSpaceOnUse" x="168" y="27" width="242" height="201">
<rect width="242" height="200" transform="matrix(-1 0 0 1 410 27.0005)" fill="#D9D9D9"/>
</mask>
<g mask="url(#mask6_702_421)">
<circle cx="9.75407" cy="9.75407" r="9.75407" transform="matrix(0.924159 0.382008 -0.924159 0.382008 168 132.601)" stroke="url(#paint7_linear_702_421)" stroke-width="4" stroke-linecap="round" stroke-dasharray="0.01 0.94"/>
</g>
<mask id="mask7_702_421" style="mask-type:alpha" maskUnits="userSpaceOnUse" x="-74" y="59" width="242" height="201">
<rect width="242" height="200" transform="matrix(1 0 0 -1 -74.0001 259)" fill="url(#paint8_radial_702_421)"/>
</mask>
<g mask="url(#mask7_702_421)">
<circle cx="125" cy="125" r="125" transform="matrix(-0.924159 -0.382008 0.924159 -0.382008 168 254)" stroke="url(#paint9_linear_702_421)" stroke-width="4" stroke-linecap="round" stroke-dasharray="0.1 12"/>
</g>
<mask id="mask8_702_421" style="mask-type:alpha" maskUnits="userSpaceOnUse" x="168" y="59" width="242" height="201">
<rect x="410" y="259" width="242" height="200" transform="rotate(180 410 259)" fill="#D9D9D9"/>
</mask>
<g mask="url(#mask8_702_421)">
<circle cx="81.25" cy="81.25" r="81.25" transform="matrix(-0.924159 -0.382008 0.924159 -0.382008 168 196.9)" stroke="url(#paint10_linear_702_421)" stroke-width="4" stroke-linecap="round" stroke-dasharray="0.07 7.8"/>
</g>
<mask id="mask9_702_421" style="mask-type:alpha" maskUnits="userSpaceOnUse" x="-74" y="59" width="242" height="201">
<rect width="242" height="200" transform="matrix(1 -8.74228e-08 -8.74228e-08 -1 -74 259)" fill="#D9D9D9"/>
</mask>
<g mask="url(#mask9_702_421)">
<circle cx="56.875" cy="56.875" r="56.875" transform="matrix(-0.924159 -0.382008 0.924159 -0.382008 168 191.5)" stroke="url(#paint11_linear_702_421)" stroke-width="4" stroke-linecap="round" stroke-dasharray="0.05 5.46"/>
</g>
<mask id="mask10_702_421" style="mask-type:alpha" maskUnits="userSpaceOnUse" x="168" y="59" width="242" height="201">
<rect x="410" y="259" width="242" height="200" transform="rotate(180 410 259)" fill="#D9D9D9"/>
</mask>
<g mask="url(#mask10_702_421)">
<circle cx="39.8125" cy="39.8125" r="39.8125" transform="matrix(-0.924159 -0.382008 0.924159 -0.382008 168 169.2)" stroke="url(#paint12_linear_702_421)" stroke-width="4" stroke-linecap="round" stroke-dasharray="0.03 3.82"/>
</g>
<mask id="mask11_702_421" style="mask-type:alpha" maskUnits="userSpaceOnUse" x="-74" y="59" width="242" height="201">
<rect width="242" height="200" transform="matrix(1 -8.74228e-08 -8.74228e-08 -1 -74 259)" fill="#D9D9D9"/>
</mask>
<g mask="url(#mask11_702_421)">
<circle cx="27.8688" cy="27.8688" r="27.8688" transform="matrix(-0.924159 -0.382008 0.924159 -0.382008 168 166.5)" stroke="url(#paint13_linear_702_421)" stroke-width="4" stroke-linecap="round" stroke-dasharray="0.02 2.68"/>
</g>
<mask id="mask12_702_421" style="mask-type:alpha" maskUnits="userSpaceOnUse" x="168" y="59" width="242" height="201">
<rect x="410" y="259" width="242" height="200" transform="rotate(180 410 259)" fill="#D9D9D9"/>
</mask>
<g mask="url(#mask12_702_421)">
<circle cx="19.5081" cy="19.5081" r="19.5081" transform="matrix(-0.924159 -0.382008 0.924159 -0.382009 168 155.601)" stroke="url(#paint14_linear_702_421)" stroke-width="4" stroke-linecap="round" stroke-dasharray="0.02 1.87"/>
</g>
<mask id="mask13_702_421" style="mask-type:alpha" maskUnits="userSpaceOnUse" x="-74" y="59" width="242" height="201">
<rect width="242" height="200" transform="matrix(1 -8.74228e-08 -8.74228e-08 -1 -74 259)" fill="#D9D9D9"/>
</mask>
<g mask="url(#mask13_702_421)">
<circle cx="9.75407" cy="9.75407" r="9.75407" transform="matrix(-0.924159 -0.382008 0.924159 -0.382008 168 153.4)" stroke="url(#paint15_linear_702_421)" stroke-width="4" stroke-linecap="round" stroke-dasharray="0.01 0.94"/>
</g>
<mask id="mask14_702_421" style="mask-type:alpha" maskUnits="userSpaceOnUse" x="180" y="34" width="242" height="201">
<rect width="242" height="200" transform="matrix(-1 0 0 1 422 34.0005)" fill="url(#paint16_radial_702_421)"/>
</mask>
<g mask="url(#mask14_702_421)">
<circle cx="125" cy="125" r="125" transform="matrix(0.924159 0.382008 -0.924159 0.382008 180 39.0005)" stroke="url(#paint17_linear_702_421)" stroke-width="2" stroke-linecap="round" stroke-dasharray="0.01 8"/>
</g>
<mask id="mask15_702_421" style="mask-type:alpha" maskUnits="userSpaceOnUse" x="-62" y="34" width="242" height="201">
<rect x="-62" y="34.0005" width="242" height="200" fill="#D9D9D9"/>
</mask>
<g mask="url(#mask15_702_421)">
<circle cx="81.25" cy="81.25" r="81.25" transform="matrix(0.924159 0.382008 -0.924159 0.382008 180 96.1006)" stroke="url(#paint18_linear_702_421)" stroke-width="2" stroke-linecap="round" stroke-dasharray="0.01 8"/>
</g>
<mask id="mask16_702_421" style="mask-type:alpha" maskUnits="userSpaceOnUse" x="180" y="34" width="242" height="201">
<rect width="242" height="200" transform="matrix(-1 0 0 1 422 34.0005)" fill="#D9D9D9"/>
</mask>
<g mask="url(#mask16_702_421)">
<circle cx="56.875" cy="56.875" r="56.875" transform="matrix(0.924159 0.382008 -0.924159 0.382008 180 101.5)" stroke="url(#paint19_linear_702_421)" stroke-width="2" stroke-linecap="round" stroke-dasharray="0.01 8"/>
</g>
<mask id="mask17_702_421" style="mask-type:alpha" maskUnits="userSpaceOnUse" x="-62" y="34" width="242" height="201">
<rect x="-62" y="34.0005" width="242" height="200" fill="#D9D9D9"/>
</mask>
<g mask="url(#mask17_702_421)">
<circle cx="39.8125" cy="39.8125" r="39.8125" transform="matrix(0.924159 0.382008 -0.924159 0.382008 180 123.801)" stroke="url(#paint20_linear_702_421)" stroke-width="2" stroke-linecap="round" stroke-dasharray="0.01 8"/>
</g>
<mask id="mask18_702_421" style="mask-type:alpha" maskUnits="userSpaceOnUse" x="180" y="34" width="242" height="201">
<rect width="242" height="200" transform="matrix(-1 0 0 1 422 34.0005)" fill="#D9D9D9"/>
</mask>
<g mask="url(#mask18_702_421)">
<circle cx="27.8688" cy="27.8688" r="27.8688" transform="matrix(0.924159 0.382008 -0.924159 0.382008 180 126.5)" stroke="url(#paint21_linear_702_421)" stroke-width="2" stroke-linecap="round" stroke-dasharray="0.01 8"/>
</g>
<mask id="mask19_702_421" style="mask-type:alpha" maskUnits="userSpaceOnUse" x="-62" y="34" width="242" height="201">
<rect x="-62" y="34.0005" width="242" height="200" fill="#D9D9D9"/>
</mask>
<g mask="url(#mask19_702_421)">
<circle cx="19.5081" cy="19.5081" r="19.5081" transform="matrix(0.924159 0.382009 -0.924159 0.382009 180 137.4)" stroke="url(#paint22_linear_702_421)" stroke-width="2" stroke-linecap="round" stroke-dasharray="0.01 8"/>
</g>
<mask id="mask20_702_421" style="mask-type:alpha" maskUnits="userSpaceOnUse" x="180" y="34" width="242" height="201">
<rect width="242" height="200" transform="matrix(-1 0 0 1 422 34.0005)" fill="#D9D9D9"/>
</mask>
<g mask="url(#mask20_702_421)">
<circle cx="9.75407" cy="9.75407" r="9.75407" transform="matrix(0.924159 0.382008 -0.924159 0.382008 180 139.601)" stroke="url(#paint23_linear_702_421)" stroke-width="2" stroke-linecap="round" stroke-dasharray="0.01 8"/>
</g>
<mask id="mask21_702_421" style="mask-type:alpha" maskUnits="userSpaceOnUse" x="-62" y="66" width="242" height="201">
<rect width="242" height="200" transform="matrix(1 0 0 -1 -62.0001 266)" fill="url(#paint24_radial_702_421)"/>
</mask>
<g mask="url(#mask21_702_421)">
<circle cx="125" cy="125" r="125" transform="matrix(-0.924159 -0.382008 0.924159 -0.382008 180 261)" stroke="url(#paint25_linear_702_421)" stroke-width="2" stroke-linecap="round" stroke-dasharray="0.01 8"/>
</g>
<mask id="mask22_702_421" style="mask-type:alpha" maskUnits="userSpaceOnUse" x="180" y="66" width="242" height="201">
<rect x="422" y="266" width="242" height="200" transform="rotate(180 422 266)" fill="#D9D9D9"/>
</mask>
<g mask="url(#mask22_702_421)">
<circle cx="81.25" cy="81.25" r="81.25" transform="matrix(-0.924159 -0.382008 0.924159 -0.382008 180 203.9)" stroke="url(#paint26_linear_702_421)" stroke-width="2" stroke-linecap="round" stroke-dasharray="0.01 8"/>
</g>
<mask id="mask23_702_421" style="mask-type:alpha" maskUnits="userSpaceOnUse" x="-62" y="66" width="242" height="201">
<rect width="242" height="200" transform="matrix(1 -8.74228e-08 -8.74228e-08 -1 -62 266)" fill="#D9D9D9"/>
</mask>
<g mask="url(#mask23_702_421)">
<circle cx="56.875" cy="56.875" r="56.875" transform="matrix(-0.924159 -0.382008 0.924159 -0.382008 180 198.5)" stroke="url(#paint27_linear_702_421)" stroke-width="2" stroke-linecap="round" stroke-dasharray="0.01 8"/>
</g>
<mask id="mask24_702_421" style="mask-type:alpha" maskUnits="userSpaceOnUse" x="180" y="66" width="242" height="201">
<rect x="422" y="266" width="242" height="200" transform="rotate(180 422 266)" fill="#D9D9D9"/>
</mask>
<g mask="url(#mask24_702_421)">
<circle cx="39.8125" cy="39.8125" r="39.8125" transform="matrix(-0.924159 -0.382008 0.924159 -0.382008 180 176.2)" stroke="url(#paint28_linear_702_421)" stroke-width="2" stroke-linecap="round" stroke-dasharray="0.01 8"/>
</g>
<mask id="mask25_702_421" style="mask-type:alpha" maskUnits="userSpaceOnUse" x="-62" y="66" width="242" height="201">
<rect width="242" height="200" transform="matrix(1 -8.74228e-08 -8.74228e-08 -1 -62 266)" fill="#D9D9D9"/>
</mask>
<g mask="url(#mask25_702_421)">
<circle cx="27.8688" cy="27.8688" r="27.8688" transform="matrix(-0.924159 -0.382008 0.924159 -0.382008 180 173.5)" stroke="url(#paint29_linear_702_421)" stroke-width="2" stroke-linecap="round" stroke-dasharray="0.01 8"/>
</g>
<mask id="mask26_702_421" style="mask-type:alpha" maskUnits="userSpaceOnUse" x="180" y="66" width="242" height="201">
<rect x="422" y="266" width="242" height="200" transform="rotate(180 422 266)" fill="#D9D9D9"/>
</mask>
<g mask="url(#mask26_702_421)">
<circle cx="19.5081" cy="19.5081" r="19.5081" transform="matrix(-0.924159 -0.382008 0.924159 -0.382009 180 162.601)" stroke="url(#paint30_linear_702_421)" stroke-width="2" stroke-linecap="round" stroke-dasharray="0.01 8"/>
</g>
<mask id="mask27_702_421" style="mask-type:alpha" maskUnits="userSpaceOnUse" x="-62" y="66" width="242" height="201">
<rect width="242" height="200" transform="matrix(1 -8.74228e-08 -8.74228e-08 -1 -62 266)" fill="#D9D9D9"/>
</mask>
<g mask="url(#mask27_702_421)">
<circle cx="9.75407" cy="9.75407" r="9.75407" transform="matrix(-0.924159 -0.382008 0.924159 -0.382008 180 160.4)" stroke="url(#paint31_linear_702_421)" stroke-width="2" stroke-linecap="round" stroke-dasharray="0.01 8"/>
</g>
<mask id="mask28_702_421" style="mask-type:alpha" maskUnits="userSpaceOnUse" x="170" y="16" width="242" height="201">
<rect width="242" height="200" transform="matrix(-1 0 0 1 412 16.0005)" fill="url(#paint32_radial_702_421)"/>
</mask>
<g mask="url(#mask28_702_421)">
<circle cx="125" cy="125" r="125" transform="matrix(0.924159 0.382008 -0.924159 0.382008 170 21.0005)" stroke="url(#paint33_linear_702_421)" stroke-linecap="round" stroke-dasharray="0.1 11"/>
</g>
<mask id="mask29_702_421" style="mask-type:alpha" maskUnits="userSpaceOnUse" x="-72" y="16" width="242" height="201">
<rect x="-72" y="16.0005" width="242" height="200" fill="#D9D9D9"/>
</mask>
<g mask="url(#mask29_702_421)">
<circle cx="81.25" cy="81.25" r="81.25" transform="matrix(0.924159 0.382008 -0.924159 0.382008 170 78.1006)" stroke="url(#paint34_linear_702_421)" stroke-linecap="round" stroke-dasharray="0.1 11"/>
</g>
<mask id="mask30_702_421" style="mask-type:alpha" maskUnits="userSpaceOnUse" x="170" y="16" width="242" height="201">
<rect width="242" height="200" transform="matrix(-1 0 0 1 412 16.0005)" fill="#D9D9D9"/>
</mask>
<g mask="url(#mask30_702_421)">
<circle cx="56.875" cy="56.875" r="56.875" transform="matrix(0.924159 0.382008 -0.924159 0.382008 170 83.5005)" stroke="url(#paint35_linear_702_421)" stroke-linecap="round" stroke-dasharray="0.1 11"/>
</g>
<mask id="mask31_702_421" style="mask-type:alpha" maskUnits="userSpaceOnUse" x="-72" y="16" width="242" height="201">
<rect x="-72" y="16.0005" width="242" height="200" fill="#D9D9D9"/>
</mask>
<g mask="url(#mask31_702_421)">
<circle cx="39.8125" cy="39.8125" r="39.8125" transform="matrix(0.924159 0.382008 -0.924159 0.382008 170 105.801)" stroke="url(#paint36_linear_702_421)" stroke-linecap="round" stroke-dasharray="0.1 11"/>
</g>
<mask id="mask32_702_421" style="mask-type:alpha" maskUnits="userSpaceOnUse" x="170" y="16" width="242" height="201">
<rect width="242" height="200" transform="matrix(-1 0 0 1 412 16.0005)" fill="#D9D9D9"/>
</mask>
<g mask="url(#mask32_702_421)">
<circle cx="27.8688" cy="27.8688" r="27.8688" transform="matrix(0.924159 0.382008 -0.924159 0.382008 170 108.5)" stroke="url(#paint37_linear_702_421)" stroke-linecap="round" stroke-dasharray="0.1 11"/>
</g>
<mask id="mask33_702_421" style="mask-type:alpha" maskUnits="userSpaceOnUse" x="-72" y="16" width="242" height="201">
<rect x="-72" y="16.0005" width="242" height="200" fill="#D9D9D9"/>
</mask>
<g mask="url(#mask33_702_421)">
<circle cx="19.5081" cy="19.5081" r="19.5081" transform="matrix(0.924159 0.382009 -0.924159 0.382009 170 119.4)" stroke="url(#paint38_linear_702_421)" stroke-linecap="round" stroke-dasharray="0.1 11"/>
</g>
<mask id="mask34_702_421" style="mask-type:alpha" maskUnits="userSpaceOnUse" x="170" y="16" width="242" height="201">
<rect width="242" height="200" transform="matrix(-1 0 0 1 412 16.0005)" fill="#D9D9D9"/>
</mask>
<g mask="url(#mask34_702_421)">
<circle cx="9.75407" cy="9.75407" r="9.75407" transform="matrix(0.924159 0.382008 -0.924159 0.382008 170 121.601)" stroke="url(#paint39_linear_702_421)" stroke-linecap="round" stroke-dasharray="0.1 11"/>
</g>
<mask id="mask35_702_421" style="mask-type:alpha" maskUnits="userSpaceOnUse" x="-72" y="48" width="242" height="201">
<rect width="242" height="200" transform="matrix(1 0 0 -1 -72.0001 248)" fill="url(#paint40_radial_702_421)"/>
</mask>
<g mask="url(#mask35_702_421)">
<circle cx="125" cy="125" r="125" transform="matrix(-0.924159 -0.382008 0.924159 -0.382008 170 243)" stroke="url(#paint41_linear_702_421)" stroke-linecap="round" stroke-dasharray="0.1 11"/>
</g>
<mask id="mask36_702_421" style="mask-type:alpha" maskUnits="userSpaceOnUse" x="170" y="48" width="242" height="201">
<rect x="412" y="248" width="242" height="200" transform="rotate(180 412 248)" fill="#D9D9D9"/>
</mask>
<g mask="url(#mask36_702_421)">
<circle cx="81.25" cy="81.25" r="81.25" transform="matrix(-0.924159 -0.382008 0.924159 -0.382008 170 185.9)" stroke="url(#paint42_linear_702_421)" stroke-linecap="round" stroke-dasharray="0.1 11"/>
</g>
<mask id="mask37_702_421" style="mask-type:alpha" maskUnits="userSpaceOnUse" x="-72" y="48" width="242" height="201">
<rect width="242" height="200" transform="matrix(1 -8.74228e-08 -8.74228e-08 -1 -72 248)" fill="#D9D9D9"/>
</mask>
<g mask="url(#mask37_702_421)">
<circle cx="56.875" cy="56.875" r="56.875" transform="matrix(-0.924159 -0.382008 0.924159 -0.382008 170 180.5)" stroke="url(#paint43_linear_702_421)" stroke-linecap="round" stroke-dasharray="0.1 11"/>
</g>
<mask id="mask38_702_421" style="mask-type:alpha" maskUnits="userSpaceOnUse" x="170" y="48" width="242" height="201">
<rect x="412" y="248" width="242" height="200" transform="rotate(180 412 248)" fill="#D9D9D9"/>
</mask>
<g mask="url(#mask38_702_421)">
<circle cx="39.8125" cy="39.8125" r="39.8125" transform="matrix(-0.924159 -0.382008 0.924159 -0.382008 170 158.2)" stroke="url(#paint44_linear_702_421)" stroke-linecap="round" stroke-dasharray="0.1 11"/>
</g>
<mask id="mask39_702_421" style="mask-type:alpha" maskUnits="userSpaceOnUse" x="-72" y="48" width="242" height="201">
<rect width="242" height="200" transform="matrix(1 -8.74228e-08 -8.74228e-08 -1 -72 248)" fill="#D9D9D9"/>
</mask>
<g mask="url(#mask39_702_421)">
<circle cx="27.8688" cy="27.8688" r="27.8688" transform="matrix(-0.924159 -0.382008 0.924159 -0.382008 170 155.5)" stroke="url(#paint45_linear_702_421)" stroke-linecap="round" stroke-dasharray="0.1 11"/>
</g>
<mask id="mask40_702_421" style="mask-type:alpha" maskUnits="userSpaceOnUse" x="170" y="48" width="242" height="201">
<rect x="412" y="248" width="242" height="200" transform="rotate(180 412 248)" fill="#D9D9D9"/>
</mask>
<g mask="url(#mask40_702_421)">
<circle cx="19.5081" cy="19.5081" r="19.5081" transform="matrix(-0.924159 -0.382008 0.924159 -0.382009 170 144.601)" stroke="url(#paint46_linear_702_421)" stroke-linecap="round" stroke-dasharray="0.1 11"/>
</g>
<mask id="mask41_702_421" style="mask-type:alpha" maskUnits="userSpaceOnUse" x="-72" y="48" width="242" height="201">
<rect width="242" height="200" transform="matrix(1 -8.74228e-08 -8.74228e-08 -1 -72 248)" fill="#D9D9D9"/>
</mask>
<g mask="url(#mask41_702_421)">
<circle cx="9.75407" cy="9.75407" r="9.75407" transform="matrix(-0.924159 -0.382008 0.924159 -0.382008 170 142.4)" stroke="url(#paint47_linear_702_421)" stroke-linecap="round" stroke-dasharray="0.1 11"/>
</g>
<g filter="url(#filter1_f_702_421)">
<circle cx="6" cy="6" r="6" transform="matrix(-1 0 0 1 174 137)" fill="white"/>
</g>
<g filter="url(#filter2_f_702_421)">
<ellipse cx="45" cy="21" rx="45" ry="21" transform="matrix(-1 0 0 1 213 122)" fill="white"/>
</g>
</g>
<defs>
<filter id="filter0_dddd_702_421" x="-90" y="-2.9707" width="528" height="284.971" filterUnits="userSpaceOnUse" color-interpolation-filters="sRGB">
<feFlood flood-opacity="0" result="BackgroundImageFix"/>
<feColorMatrix in="SourceAlpha" type="matrix" values="0 0 0 0 0 0 0 0 0 0 0 0 0 0 0 0 0 0 127 0" result="hardAlpha"/>
<feOffset/>
<feGaussianBlur stdDeviation="2"/>
<feColorMatrix type="matrix" values="0 0 0 0 1 0 0 0 0 1 0 0 0 0 1 0 0 0 1 0"/>
<feBlend mode="normal" in2="BackgroundImageFix" result="effect1_dropShadow_702_421"/>
<feColorMatrix in="SourceAlpha" type="matrix" values="0 0 0 0 0 0 0 0 0 0 0 0 0 0 0 0 0 0 127 0" result="hardAlpha"/>
<feOffset/>
<feGaussianBlur stdDeviation="4"/>
<feColorMatrix type="matrix" values="0 0 0 0 0 0 0 0 0 0.28125 0 0 0 0 1 0 0 0 1 0"/>
<feBlend mode="normal" in2="effect1_dropShadow_702_421" result="effect2_dropShadow_702_421"/>
<feColorMatrix in="SourceAlpha" type="matrix" values="0 0 0 0 0 0 0 0 0 0 0 0 0 0 0 0 0 0 127 0" result="hardAlpha"/>
<feOffset/>
<feGaussianBlur stdDeviation="6"/>
<feColorMatrix type="matrix" values="0 0 0 0 0 0 0 0 0 0.279188 0 0 0 0 1 0 0 0 1 0"/>
<feBlend mode="normal" in2="effect2_dropShadow_702_421" result="effect3_dropShadow_702_421"/>
<feColorMatrix in="SourceAlpha" type="matrix" values="0 0 0 0 0 0 0 0 0 0 0 0 0 0 0 0 0 0 127 0" result="hardAlpha"/>
<feOffset/>
<feGaussianBlur stdDeviation="8"/>
<feColorMatrix type="matrix" values="0 0 0 0 0 0 0 0 0 0.279188 0 0 0 0 1 0 0 0 1 0"/>
<feBlend mode="normal" in2="effect3_dropShadow_702_421" result="effect4_dropShadow_702_421"/>
<feBlend mode="normal" in="SourceGraphic" in2="effect4_dropShadow_702_421" result="shape"/>
</filter>
<filter id="filter1_f_702_421" x="160" y="135" width="16" height="16" filterUnits="userSpaceOnUse" color-interpolation-filters="sRGB">
<feFlood flood-opacity="0" result="BackgroundImageFix"/>
<feBlend mode="normal" in="SourceGraphic" in2="BackgroundImageFix" result="shape"/>
<feGaussianBlur stdDeviation="1" result="effect1_foregroundBlur_702_421"/>
</filter>
<filter id="filter2_f_702_421" x="92" y="91.0005" width="152" height="104" filterUnits="userSpaceOnUse" color-interpolation-filters="sRGB">
<feFlood flood-opacity="0" result="BackgroundImageFix"/>
<feBlend mode="normal" in="SourceGraphic" in2="BackgroundImageFix" result="shape"/>
<feGaussianBlur stdDeviation="15.5" result="effect1_foregroundBlur_702_421"/>
</filter>
<radialGradient id="paint0_radial_702_421" cx="0" cy="0" r="1" gradientUnits="userSpaceOnUse" gradientTransform="translate(227 35.5) rotate(175.03) scale(69.2604 83.8051)">
<stop stop-opacity="0"/>
<stop offset="1"/>
</radialGradient>
<linearGradient id="paint1_linear_702_421" x1="125" y1="0" x2="123.512" y2="277.53" gradientUnits="userSpaceOnUse">
<stop stop-color="white"/>
<stop offset="1" stop-color="white" stop-opacity="0"/>
</linearGradient>
<linearGradient id="paint2_linear_702_421" x1="81.25" y1="0" x2="80.2827" y2="180.394" gradientUnits="userSpaceOnUse">
<stop stop-color="white"/>
<stop offset="1" stop-color="white" stop-opacity="0"/>
</linearGradient>
<linearGradient id="paint3_linear_702_421" x1="56.875" y1="0" x2="56.1979" y2="126.276" gradientUnits="userSpaceOnUse">
<stop stop-color="white"/>
<stop offset="1" stop-color="white" stop-opacity="0"/>
</linearGradient>
<linearGradient id="paint4_linear_702_421" x1="39.8125" y1="0" x2="39.3385" y2="88.3932" gradientUnits="userSpaceOnUse">
<stop stop-color="white"/>
<stop offset="1" stop-color="white" stop-opacity="0"/>
</linearGradient>
<linearGradient id="paint5_linear_702_421" x1="27.8688" y1="0" x2="27.537" y2="61.8753" gradientUnits="userSpaceOnUse">
<stop stop-color="white"/>
<stop offset="1" stop-color="white" stop-opacity="0"/>
</linearGradient>
<linearGradient id="paint6_linear_702_421" x1="19.5081" y1="0" x2="19.2759" y2="43.3127" gradientUnits="userSpaceOnUse">
<stop stop-color="white"/>
<stop offset="1" stop-color="white" stop-opacity="0"/>
</linearGradient>
<linearGradient id="paint7_linear_702_421" x1="9.75407" y1="0" x2="9.63795" y2="21.6564" gradientUnits="userSpaceOnUse">
<stop stop-color="white"/>
<stop offset="1" stop-color="white" stop-opacity="0"/>
</linearGradient>
<radialGradient id="paint8_radial_702_421" cx="0" cy="0" r="1" gradientUnits="userSpaceOnUse" gradientTransform="translate(227 35.5) rotate(175.03) scale(69.2604 83.8051)">
<stop stop-opacity="0"/>
<stop offset="1"/>
</radialGradient>
<linearGradient id="paint9_linear_702_421" x1="125" y1="0" x2="123.512" y2="277.53" gradientUnits="userSpaceOnUse">
<stop stop-color="white"/>
<stop offset="1" stop-color="white" stop-opacity="0"/>
</linearGradient>
<linearGradient id="paint10_linear_702_421" x1="81.25" y1="0" x2="80.2827" y2="180.394" gradientUnits="userSpaceOnUse">
<stop stop-color="white"/>
<stop offset="1" stop-color="white" stop-opacity="0"/>
</linearGradient>
<linearGradient id="paint11_linear_702_421" x1="56.875" y1="0" x2="56.1979" y2="126.276" gradientUnits="userSpaceOnUse">
<stop stop-color="white"/>
<stop offset="1" stop-color="white" stop-opacity="0"/>
</linearGradient>
<linearGradient id="paint12_linear_702_421" x1="39.8125" y1="0" x2="39.3385" y2="88.3932" gradientUnits="userSpaceOnUse">
<stop stop-color="white"/>
<stop offset="1" stop-color="white" stop-opacity="0"/>
</linearGradient>
<linearGradient id="paint13_linear_702_421" x1="27.8688" y1="0" x2="27.537" y2="61.8753" gradientUnits="userSpaceOnUse">
<stop stop-color="white"/>
<stop offset="1" stop-color="white" stop-opacity="0"/>
</linearGradient>
<linearGradient id="paint14_linear_702_421" x1="19.5081" y1="0" x2="19.2759" y2="43.3127" gradientUnits="userSpaceOnUse">
<stop stop-color="white"/>
<stop offset="1" stop-color="white" stop-opacity="0"/>
</linearGradient>
<linearGradient id="paint15_linear_702_421" x1="9.75407" y1="0" x2="9.63795" y2="21.6564" gradientUnits="userSpaceOnUse">
<stop stop-color="white"/>
<stop offset="1" stop-color="white" stop-opacity="0"/>
</linearGradient>
<radialGradient id="paint16_radial_702_421" cx="0" cy="0" r="1" gradientUnits="userSpaceOnUse" gradientTransform="translate(227 35.5) rotate(175.03) scale(69.2604 83.8051)">
<stop stop-opacity="0"/>
<stop offset="1"/>
</radialGradient>
<linearGradient id="paint17_linear_702_421" x1="125" y1="0" x2="123.512" y2="277.53" gradientUnits="userSpaceOnUse">
<stop stop-color="white"/>
<stop offset="1" stop-color="white" stop-opacity="0"/>
</linearGradient>
<linearGradient id="paint18_linear_702_421" x1="81.25" y1="0" x2="80.2827" y2="180.394" gradientUnits="userSpaceOnUse">
<stop stop-color="white"/>
<stop offset="1" stop-color="white" stop-opacity="0"/>
</linearGradient>
<linearGradient id="paint19_linear_702_421" x1="56.875" y1="0" x2="56.1979" y2="126.276" gradientUnits="userSpaceOnUse">
<stop stop-color="white"/>
<stop offset="1" stop-color="white" stop-opacity="0"/>
</linearGradient>
<linearGradient id="paint20_linear_702_421" x1="39.8125" y1="0" x2="39.3385" y2="88.3932" gradientUnits="userSpaceOnUse">
<stop stop-color="white"/>
<stop offset="1" stop-color="white" stop-opacity="0"/>
</linearGradient>
<linearGradient id="paint21_linear_702_421" x1="27.8688" y1="0" x2="27.537" y2="61.8753" gradientUnits="userSpaceOnUse">
<stop stop-color="white"/>
<stop offset="1" stop-color="white" stop-opacity="0"/>
</linearGradient>
<linearGradient id="paint22_linear_702_421" x1="19.5081" y1="0" x2="19.2759" y2="43.3127" gradientUnits="userSpaceOnUse">
<stop stop-color="white"/>
<stop offset="1" stop-color="white" stop-opacity="0"/>
</linearGradient>
<linearGradient id="paint23_linear_702_421" x1="9.75407" y1="0" x2="9.63795" y2="21.6564" gradientUnits="userSpaceOnUse">
<stop stop-color="white"/>
<stop offset="1" stop-color="white" stop-opacity="0"/>
</linearGradient>
<radialGradient id="paint24_radial_702_421" cx="0" cy="0" r="1" gradientUnits="userSpaceOnUse" gradientTransform="translate(227 35.5) rotate(175.03) scale(69.2604 83.8051)">
<stop stop-opacity="0"/>
<stop offset="1"/>
</radialGradient>
<linearGradient id="paint25_linear_702_421" x1="125" y1="0" x2="123.512" y2="277.53" gradientUnits="userSpaceOnUse">
<stop stop-color="white"/>
<stop offset="1" stop-color="white" stop-opacity="0"/>
</linearGradient>
<linearGradient id="paint26_linear_702_421" x1="81.25" y1="0" x2="80.2827" y2="180.394" gradientUnits="userSpaceOnUse">
<stop stop-color="white"/>
<stop offset="1" stop-color="white" stop-opacity="0"/>
</linearGradient>
<linearGradient id="paint27_linear_702_421" x1="56.875" y1="0" x2="56.1979" y2="126.276" gradientUnits="userSpaceOnUse">
<stop stop-color="white"/>
<stop offset="1" stop-color="white" stop-opacity="0"/>
</linearGradient>
<linearGradient id="paint28_linear_702_421" x1="39.8125" y1="0" x2="39.3385" y2="88.3932" gradientUnits="userSpaceOnUse">
<stop stop-color="white"/>
<stop offset="1" stop-color="white" stop-opacity="0"/>
</linearGradient>
<linearGradient id="paint29_linear_702_421" x1="27.8688" y1="0" x2="27.537" y2="61.8753" gradientUnits="userSpaceOnUse">
<stop stop-color="white"/>
<stop offset="1" stop-color="white" stop-opacity="0"/>
</linearGradient>
<linearGradient id="paint30_linear_702_421" x1="19.5081" y1="0" x2="19.2759" y2="43.3127" gradientUnits="userSpaceOnUse">
<stop stop-color="white"/>
<stop offset="1" stop-color="white" stop-opacity="0"/>
</linearGradient>
<linearGradient id="paint31_linear_702_421" x1="9.75407" y1="0" x2="9.63795" y2="21.6564" gradientUnits="userSpaceOnUse">
<stop stop-color="white"/>
<stop offset="1" stop-color="white" stop-opacity="0"/>
</linearGradient>
<radialGradient id="paint32_radial_702_421" cx="0" cy="0" r="1" gradientUnits="userSpaceOnUse" gradientTransform="translate(227 35.5) rotate(175.03) scale(69.2604 83.8051)">
<stop stop-opacity="0"/>
<stop offset="1"/>
</radialGradient>
<linearGradient id="paint33_linear_702_421" x1="125" y1="0" x2="123.512" y2="277.53" gradientUnits="userSpaceOnUse">
<stop stop-color="white"/>
<stop offset="1" stop-color="white" stop-opacity="0"/>
</linearGradient>
<linearGradient id="paint34_linear_702_421" x1="81.25" y1="0" x2="80.2827" y2="180.394" gradientUnits="userSpaceOnUse">
<stop stop-color="white"/>
<stop offset="1" stop-color="white" stop-opacity="0"/>
</linearGradient>
<linearGradient id="paint35_linear_702_421" x1="56.875" y1="0" x2="56.1979" y2="126.276" gradientUnits="userSpaceOnUse">
<stop stop-color="white"/>
<stop offset="1" stop-color="white" stop-opacity="0"/>
</linearGradient>
<linearGradient id="paint36_linear_702_421" x1="39.8125" y1="0" x2="39.3385" y2="88.3932" gradientUnits="userSpaceOnUse">
<stop stop-color="white"/>
<stop offset="1" stop-color="white" stop-opacity="0"/>
</linearGradient>
<linearGradient id="paint37_linear_702_421" x1="27.8688" y1="0" x2="27.537" y2="61.8753" gradientUnits="userSpaceOnUse">
<stop stop-color="white"/>
<stop offset="1" stop-color="white" stop-opacity="0"/>
</linearGradient>
<linearGradient id="paint38_linear_702_421" x1="19.5081" y1="0" x2="19.2759" y2="43.3127" gradientUnits="userSpaceOnUse">
<stop stop-color="white"/>
<stop offset="1" stop-color="white" stop-opacity="0"/>
</linearGradient>
<linearGradient id="paint39_linear_702_421" x1="9.75407" y1="0" x2="9.63795" y2="21.6564" gradientUnits="userSpaceOnUse">
<stop stop-color="white"/>
<stop offset="1" stop-color="white" stop-opacity="0"/>
</linearGradient>
<radialGradient id="paint40_radial_702_421" cx="0" cy="0" r="1" gradientUnits="userSpaceOnUse" gradientTransform="translate(227 35.5) rotate(175.03) scale(69.2604 83.8051)">
<stop stop-opacity="0"/>
<stop offset="1"/>
</radialGradient>
<linearGradient id="paint41_linear_702_421" x1="125" y1="0" x2="123.512" y2="277.53" gradientUnits="userSpaceOnUse">
<stop stop-color="white"/>
<stop offset="1" stop-color="white" stop-opacity="0"/>
</linearGradient>
<linearGradient id="paint42_linear_702_421" x1="81.25" y1="0" x2="80.2827" y2="180.394" gradientUnits="userSpaceOnUse">
<stop stop-color="white"/>
<stop offset="1" stop-color="white" stop-opacity="0"/>
</linearGradient>
<linearGradient id="paint43_linear_702_421" x1="56.875" y1="0" x2="56.1979" y2="126.276" gradientUnits="userSpaceOnUse">
<stop stop-color="white"/>
<stop offset="1" stop-color="white" stop-opacity="0"/>
</linearGradient>
<linearGradient id="paint44_linear_702_421" x1="39.8125" y1="0" x2="39.3385" y2="88.3932" gradientUnits="userSpaceOnUse">
<stop stop-color="white"/>
<stop offset="1" stop-color="white" stop-opacity="0"/>
</linearGradient>
<linearGradient id="paint45_linear_702_421" x1="27.8688" y1="0" x2="27.537" y2="61.8753" gradientUnits="userSpaceOnUse">
<stop stop-color="white"/>
<stop offset="1" stop-color="white" stop-opacity="0"/>
</linearGradient>
<linearGradient id="paint46_linear_702_421" x1="19.5081" y1="0" x2="19.2759" y2="43.3127" gradientUnits="userSpaceOnUse">
<stop stop-color="white"/>
<stop offset="1" stop-color="white" stop-opacity="0"/>
</linearGradient>
<linearGradient id="paint47_linear_702_421" x1="9.75407" y1="0" x2="9.63795" y2="21.6564" gradientUnits="userSpaceOnUse">
<stop stop-color="white"/>
<stop offset="1" stop-color="white" stop-opacity="0"/>
</linearGradient>
</defs>
</svg>
