<svg width="353" height="454" viewBox="0 0 353 454" fill="none" xmlns="http://www.w3.org/2000/svg">
<mask id="mask0_221_5450" style="mask-type:alpha" maskUnits="userSpaceOnUse" x="105" y="102" width="121" height="218">
<rect width="216.955" height="119.934" transform="matrix(-1.36931e-07 -1 -1 7.98797e-08 225.478 319.135)" fill="url(#paint0_linear_221_5450)"/>
</mask>
<g mask="url(#mask0_221_5450)">
<g filter="url(#filter0_dddd_221_5450)">
<ellipse cx="85.1403" cy="85.93" rx="85.1403" ry="85.93" transform="matrix(0.476728 -0.879051 0.476684 0.879075 83.8645 209.804)" stroke="white" stroke-linecap="round" stroke-dasharray="0.1 6"/>
</g>
</g>
<mask id="mask1_221_5450" style="mask-type:alpha" maskUnits="userSpaceOnUse" x="121" y="111" width="108" height="195">
<rect width="194.456" height="107.309" transform="matrix(-1.36931e-07 -1 -1 7.98797e-08 228.634 305.475)" fill="url(#paint1_linear_221_5450)"/>
</mask>
<g mask="url(#mask1_221_5450)">
<g filter="url(#filter1_dddd_221_5450)">
<ellipse cx="76.5787" cy="77.289" rx="76.5787" ry="77.289" transform="matrix(0.476728 -0.879051 0.476684 0.879075 101.578 208.021)" stroke="white" stroke-linecap="round" stroke-dasharray="10 9"/>
</g>
</g>
<mask id="mask2_221_5450" style="mask-type:alpha" maskUnits="userSpaceOnUse" x="115" y="100" width="123" height="223">
<rect width="221.776" height="122.038" transform="matrix(-1.43327e-07 -1 -1 7.63148e-08 237.051 322.35)" fill="url(#paint2_linear_221_5450)"/>
</mask>
<g mask="url(#mask2_221_5450)">
<g filter="url(#filter2_dddd_221_5450)">
<ellipse cx="86.4225" cy="87.2241" rx="86.4225" ry="87.2241" transform="matrix(0.476728 -0.879051 0.476684 0.879075 94.0734 210.685)" stroke="white" stroke-width="2" stroke-linecap="round" stroke-dasharray="0.1 9"/>
</g>
</g>
<mask id="mask3_221_5450" style="mask-type:alpha" maskUnits="userSpaceOnUse" x="127" y="103" width="119" height="217">
<rect width="215.348" height="117.83" transform="matrix(-1.36912e-07 -1 -1 7.98695e-08 245.467 319.135)" fill="url(#paint3_linear_221_5450)"/>
</mask>
<g mask="url(#mask3_221_5450)">
<g filter="url(#filter3_dddd_221_5450)">
<ellipse cx="81.4677" cy="82.2233" rx="81.4677" ry="82.2233" transform="matrix(0.476728 -0.879051 0.476684 0.879075 108.702 211.006)" stroke="white" stroke-width="3" stroke-linecap="round" stroke-dasharray="0.1 12"/>
</g>
</g>
<mask id="mask4_221_5450" style="mask-type:alpha" maskUnits="userSpaceOnUse" x="26" y="156" width="300" height="98">
<rect width="298.783" height="96.4243" transform="matrix(-1 7.98797e-08 1.36931e-07 1 325.066 156.752)" fill="url(#paint4_linear_221_5450)"/>
</mask>
<g mask="url(#mask4_221_5450)">
<g filter="url(#filter4_dddd_221_5450)">
<ellipse cx="107.466" cy="108.464" rx="107.466" ry="108.464" transform="matrix(-0.953424 -0.301632 0.953435 -0.3016 175.244 269.64)" stroke="white" stroke-linecap="round" stroke-dasharray="0.1 7"/>
</g>
</g>
<mask id="mask5_221_5450" style="mask-type:alpha" maskUnits="userSpaceOnUse" x="34" y="161" width="283" height="91">
<rect width="281.95" height="89.996" transform="matrix(-1 7.98797e-08 1.36931e-07 1 316.916 161.496)" fill="url(#paint5_linear_221_5450)"/>
</mask>
<g mask="url(#mask5_221_5450)">
<g filter="url(#filter5_dddd_221_5450)">
<ellipse cx="93.9825" cy="94.8559" rx="93.9825" ry="94.8559" transform="matrix(-0.953424 -0.301632 0.953435 -0.3016 175.25 263.386)" stroke="white" stroke-linecap="round" stroke-dasharray="10 14"/>
</g>
</g>
<mask id="mask6_221_5450" style="mask-type:alpha" maskUnits="userSpaceOnUse" x="34" y="152" width="283" height="91">
<rect width="281.95" height="89.996" transform="matrix(-1 7.98797e-08 1.36931e-07 1 316.916 152.657)" fill="url(#paint6_linear_221_5450)"/>
</mask>
<g mask="url(#mask6_221_5450)">
<g filter="url(#filter6_dddd_221_5450)">
<ellipse cx="99.4696" cy="100.394" rx="99.4696" ry="100.394" transform="matrix(-0.953424 -0.301632 0.953435 -0.3016 175.202 257.62)" stroke="white" stroke-width="3" stroke-linecap="round" stroke-dasharray="0.1 12"/>
</g>
</g>
<mask id="mask7_221_5450" style="mask-type:alpha" maskUnits="userSpaceOnUse" x="34" y="174" width="283" height="91">
<rect width="281.95" height="89.996" transform="matrix(-1 7.98797e-08 1.36931e-07 1 316.916 174.353)" fill="url(#paint7_linear_221_5450)"/>
</mask>
<g mask="url(#mask7_221_5450)">
<g filter="url(#filter7_dddd_221_5450)">
<ellipse cx="98.3434" cy="99.2573" rx="98.3434" ry="99.2573" transform="matrix(-0.953424 -0.301632 0.953435 -0.3016 175.098 279.259)" stroke="white" stroke-width="3" stroke-linecap="round" stroke-dasharray="0.1 12"/>
</g>
</g>
<g style="mix-blend-mode:screen" filter="url(#filter8_f_221_5450)">
<path fill-rule="evenodd" clip-rule="evenodd" d="M128.384 260.702C130.979 267.731 134.064 274.121 137.524 279.734C148.468 297.487 161.74 305.572 173.961 305.572C186.181 305.572 199.454 297.487 210.398 279.734C213.972 273.936 217.145 267.309 219.792 260.006C204.59 261.948 188.222 263.005 171.168 263.005C156.277 263.005 141.91 262.199 128.384 260.702ZM112.899 258.632C124.169 294.785 147.28 319.572 173.961 319.572C200.883 319.572 224.172 294.334 235.327 257.646C283.364 249.126 316.41 231.339 316.41 210.775C316.41 190.397 283.955 172.744 236.619 164.137C226.049 125.027 201.972 97.7067 173.961 97.7067C146.191 97.7067 122.288 124.558 111.579 163.129C61.0801 171.309 25.9255 189.566 25.9255 210.775C25.9255 232.169 61.6939 250.558 112.899 258.632ZM108.235 177.908C95.093 180.297 83.2764 183.395 73.2034 187.017C60.9429 191.426 52.0101 196.348 46.4077 201.111C40.748 205.923 39.9255 209.243 39.9255 210.775C39.9255 212.307 40.748 215.627 46.4077 220.439C52.0101 225.203 60.9429 230.124 73.2034 234.533C83.4924 238.233 95.6005 241.386 109.083 243.795C106.809 232.748 105.577 220.927 105.577 208.639C105.577 197.978 106.505 187.667 108.235 177.908ZM122.94 175.61C120.778 185.861 119.577 196.967 119.577 208.639C119.577 222.003 121.151 234.625 123.94 246.071C138.581 247.958 154.48 249.005 171.168 249.005C190.077 249.005 207.972 247.661 224.174 245.273C226.843 234.04 228.344 221.693 228.344 208.639C228.344 197.275 227.206 186.447 225.151 176.423C208.693 173.944 190.457 172.545 171.168 172.545C154.099 172.545 137.857 173.641 122.94 175.61ZM126.837 161.023C129.718 152.228 133.347 144.321 137.524 137.545C148.468 119.792 161.74 111.707 173.961 111.707C186.181 111.707 199.454 119.792 210.398 137.545C214.688 144.505 218.401 152.659 221.318 161.743C205.687 159.675 188.794 158.545 171.168 158.545C155.708 158.545 140.812 159.414 126.837 161.023ZM239.88 179.022C250.722 181.231 260.558 183.934 269.132 187.017C281.392 191.426 290.325 196.348 295.927 201.111C301.587 205.923 302.41 209.243 302.41 210.775C302.41 212.307 301.587 215.627 295.927 220.439C290.325 225.203 281.392 230.124 269.132 234.533C260.343 237.694 250.227 240.455 239.062 242.694C241.193 231.964 242.344 220.52 242.344 208.639C242.344 198.382 241.486 188.45 239.88 179.022Z" fill="url(#paint8_linear_221_5450)"/>
</g>
<g style="mix-blend-mode:color-dodge" filter="url(#filter9_f_221_5450)">
<path fill-rule="evenodd" clip-rule="evenodd" d="M135.07 261.379C137.296 266.964 139.842 272.06 142.632 276.586C152.962 293.344 164.596 299.572 173.961 299.572C183.326 299.572 194.96 293.344 205.29 276.586C208.177 271.904 210.802 266.61 213.082 260.797C199.811 262.233 185.74 263.005 171.168 263.005C158.706 263.005 146.612 262.441 135.07 261.379ZM112.899 258.632C124.169 294.785 147.28 319.572 173.961 319.572C200.883 319.572 224.172 294.334 235.327 257.646C283.364 249.126 316.41 231.339 316.41 210.775C316.41 190.397 283.955 172.744 236.619 164.137C226.049 125.027 201.972 97.7067 173.961 97.7067C146.191 97.7067 122.288 124.558 111.579 163.129C61.0801 171.309 25.9255 189.566 25.9255 210.775C25.9255 232.169 61.6939 250.558 112.899 258.632ZM107.243 184.195C95.2309 186.473 84.4458 189.351 75.2338 192.663C63.3509 196.936 55.1477 201.556 50.2941 205.682C47.0282 208.459 46.1717 210.186 45.9659 210.775C46.1717 211.364 47.0282 213.091 50.2941 215.868C55.1477 219.995 63.3509 224.614 75.2338 228.887C84.6163 232.261 95.6308 235.184 107.912 237.481C106.389 228.285 105.577 218.616 105.577 208.639C105.577 200.241 106.153 192.06 107.243 184.195ZM127.995 181.024C126.437 189.67 125.577 198.934 125.577 208.639C125.577 220.002 126.756 230.757 128.852 240.627C142.054 242.159 156.272 243.005 171.168 243.005C188.246 243.005 204.433 241.892 219.22 239.911C221.222 230.238 222.344 219.727 222.344 208.639C222.344 199.206 221.532 190.19 220.057 181.753C205.045 179.701 188.568 178.545 171.168 178.545C155.949 178.545 141.438 179.429 127.995 181.024ZM133.41 160.328C135.995 152.989 139.121 146.389 142.632 140.693C152.962 123.935 164.596 117.707 173.961 117.707C183.326 117.707 194.96 123.935 205.29 140.693C208.898 146.545 212.098 153.352 214.724 160.935C200.974 159.382 186.342 158.545 171.168 158.545C158.107 158.545 145.45 159.165 133.41 160.328ZM240.835 185.349C250.559 187.417 259.382 189.888 267.101 192.663C278.984 196.936 287.187 201.556 292.041 205.682C295.307 208.459 296.164 210.186 296.369 210.775C296.164 211.364 295.307 213.091 292.041 215.868C287.187 219.995 278.984 224.614 267.101 228.887C259.214 231.724 250.173 234.241 240.196 236.336C241.598 227.483 242.344 218.203 242.344 208.639C242.344 200.651 241.824 192.859 240.835 185.349ZM45.9063 211.003C45.9081 211.003 45.914 210.979 45.9188 210.93C45.9069 210.978 45.9045 211.003 45.9063 211.003ZM45.9188 210.62C45.914 210.572 45.9081 210.548 45.9063 210.548C45.9045 210.548 45.9069 210.572 45.9188 210.62ZM296.423 210.569C296.426 210.555 296.428 210.548 296.429 210.548C296.431 210.548 296.428 210.572 296.416 210.62C296.419 210.598 296.421 210.581 296.423 210.569ZM296.416 210.93C296.421 210.979 296.427 211.003 296.429 211.003C296.431 211.003 296.428 210.978 296.416 210.93Z" fill="url(#paint9_linear_221_5450)"/>
</g>
<defs>
<filter id="filter0_dddd_221_5450" x="67.8645" y="44.1187" width="195.1" height="332.763" filterUnits="userSpaceOnUse" color-interpolation-filters="sRGB">
<feFlood flood-opacity="0" result="BackgroundImageFix"/>
<feColorMatrix in="SourceAlpha" type="matrix" values="0 0 0 0 0 0 0 0 0 0 0 0 0 0 0 0 0 0 127 0" result="hardAlpha"/>
<feOffset/>
<feGaussianBlur stdDeviation="2"/>
<feColorMatrix type="matrix" values="0 0 0 0 1 0 0 0 0 1 0 0 0 0 1 0 0 0 1 0"/>
<feBlend mode="normal" in2="BackgroundImageFix" result="effect1_dropShadow_221_5450"/>
<feColorMatrix in="SourceAlpha" type="matrix" values="0 0 0 0 0 0 0 0 0 0 0 0 0 0 0 0 0 0 127 0" result="hardAlpha"/>
<feOffset/>
<feGaussianBlur stdDeviation="4"/>
<feColorMatrix type="matrix" values="0 0 0 0 0.270833 0 0 0 0 1 0 0 0 0 0.762597 0 0 0 1 0"/>
<feBlend mode="normal" in2="effect1_dropShadow_221_5450" result="effect2_dropShadow_221_5450"/>
<feColorMatrix in="SourceAlpha" type="matrix" values="0 0 0 0 0 0 0 0 0 0 0 0 0 0 0 0 0 0 127 0" result="hardAlpha"/>
<feOffset/>
<feGaussianBlur stdDeviation="6"/>
<feColorMatrix type="matrix" values="0 0 0 0 0.270588 0 0 0 0 1 0 0 0 0 0.760784 0 0 0 1 0"/>
<feBlend mode="normal" in2="effect2_dropShadow_221_5450" result="effect3_dropShadow_221_5450"/>
<feColorMatrix in="SourceAlpha" type="matrix" values="0 0 0 0 0 0 0 0 0 0 0 0 0 0 0 0 0 0 127 0" result="hardAlpha"/>
<feOffset/>
<feGaussianBlur stdDeviation="8"/>
<feColorMatrix type="matrix" values="0 0 0 0 0.270588 0 0 0 0 1 0 0 0 0 0.760784 0 0 0 1 0"/>
<feBlend mode="normal" in2="effect3_dropShadow_221_5450" result="effect4_dropShadow_221_5450"/>
<feBlend mode="normal" in="SourceGraphic" in2="effect4_dropShadow_221_5450" result="shape"/>
</filter>
<filter id="filter1_dddd_221_5450" x="85.5785" y="57.3882" width="178.699" height="302.519" filterUnits="userSpaceOnUse" color-interpolation-filters="sRGB">
<feFlood flood-opacity="0" result="BackgroundImageFix"/>
<feColorMatrix in="SourceAlpha" type="matrix" values="0 0 0 0 0 0 0 0 0 0 0 0 0 0 0 0 0 0 127 0" result="hardAlpha"/>
<feOffset/>
<feGaussianBlur stdDeviation="2"/>
<feColorMatrix type="matrix" values="0 0 0 0 1 0 0 0 0 1 0 0 0 0 1 0 0 0 1 0"/>
<feBlend mode="normal" in2="BackgroundImageFix" result="effect1_dropShadow_221_5450"/>
<feColorMatrix in="SourceAlpha" type="matrix" values="0 0 0 0 0 0 0 0 0 0 0 0 0 0 0 0 0 0 127 0" result="hardAlpha"/>
<feOffset/>
<feGaussianBlur stdDeviation="4"/>
<feColorMatrix type="matrix" values="0 0 0 0 0.270833 0 0 0 0 1 0 0 0 0 0.762597 0 0 0 1 0"/>
<feBlend mode="normal" in2="effect1_dropShadow_221_5450" result="effect2_dropShadow_221_5450"/>
<feColorMatrix in="SourceAlpha" type="matrix" values="0 0 0 0 0 0 0 0 0 0 0 0 0 0 0 0 0 0 127 0" result="hardAlpha"/>
<feOffset/>
<feGaussianBlur stdDeviation="6"/>
<feColorMatrix type="matrix" values="0 0 0 0 0.270588 0 0 0 0 1 0 0 0 0 0.760784 0 0 0 1 0"/>
<feBlend mode="normal" in2="effect2_dropShadow_221_5450" result="effect3_dropShadow_221_5450"/>
<feColorMatrix in="SourceAlpha" type="matrix" values="0 0 0 0 0 0 0 0 0 0 0 0 0 0 0 0 0 0 127 0" result="hardAlpha"/>
<feOffset/>
<feGaussianBlur stdDeviation="8"/>
<feColorMatrix type="matrix" values="0 0 0 0 0.270588 0 0 0 0 1 0 0 0 0 0.760784 0 0 0 1 0"/>
<feBlend mode="normal" in2="effect3_dropShadow_221_5450" result="effect4_dropShadow_221_5450"/>
<feBlend mode="normal" in="SourceGraphic" in2="effect4_dropShadow_221_5450" result="shape"/>
</filter>
<filter id="filter2_dddd_221_5450" x="78.0734" y="42.7451" width="197.557" height="337.292" filterUnits="userSpaceOnUse" color-interpolation-filters="sRGB">
<feFlood flood-opacity="0" result="BackgroundImageFix"/>
<feColorMatrix in="SourceAlpha" type="matrix" values="0 0 0 0 0 0 0 0 0 0 0 0 0 0 0 0 0 0 127 0" result="hardAlpha"/>
<feOffset/>
<feGaussianBlur stdDeviation="2"/>
<feColorMatrix type="matrix" values="0 0 0 0 1 0 0 0 0 1 0 0 0 0 1 0 0 0 1 0"/>
<feBlend mode="normal" in2="BackgroundImageFix" result="effect1_dropShadow_221_5450"/>
<feColorMatrix in="SourceAlpha" type="matrix" values="0 0 0 0 0 0 0 0 0 0 0 0 0 0 0 0 0 0 127 0" result="hardAlpha"/>
<feOffset/>
<feGaussianBlur stdDeviation="4"/>
<feColorMatrix type="matrix" values="0 0 0 0 0.270833 0 0 0 0 1 0 0 0 0 0.762597 0 0 0 1 0"/>
<feBlend mode="normal" in2="effect1_dropShadow_221_5450" result="effect2_dropShadow_221_5450"/>
<feColorMatrix in="SourceAlpha" type="matrix" values="0 0 0 0 0 0 0 0 0 0 0 0 0 0 0 0 0 0 127 0" result="hardAlpha"/>
<feOffset/>
<feGaussianBlur stdDeviation="6"/>
<feColorMatrix type="matrix" values="0 0 0 0 0.270588 0 0 0 0 1 0 0 0 0 0.760784 0 0 0 1 0"/>
<feBlend mode="normal" in2="effect2_dropShadow_221_5450" result="effect3_dropShadow_221_5450"/>
<feColorMatrix in="SourceAlpha" type="matrix" values="0 0 0 0 0 0 0 0 0 0 0 0 0 0 0 0 0 0 127 0" result="hardAlpha"/>
<feOffset/>
<feGaussianBlur stdDeviation="8"/>
<feColorMatrix type="matrix" values="0 0 0 0 0.270588 0 0 0 0 1 0 0 0 0 0.760784 0 0 0 1 0"/>
<feBlend mode="normal" in2="effect3_dropShadow_221_5450" result="effect4_dropShadow_221_5450"/>
<feBlend mode="normal" in="SourceGraphic" in2="effect4_dropShadow_221_5450" result="shape"/>
</filter>
<filter id="filter3_dddd_221_5450" x="92.7024" y="51.7778" width="188.065" height="319.79" filterUnits="userSpaceOnUse" color-interpolation-filters="sRGB">
<feFlood flood-opacity="0" result="BackgroundImageFix"/>
<feColorMatrix in="SourceAlpha" type="matrix" values="0 0 0 0 0 0 0 0 0 0 0 0 0 0 0 0 0 0 127 0" result="hardAlpha"/>
<feOffset/>
<feGaussianBlur stdDeviation="2"/>
<feColorMatrix type="matrix" values="0 0 0 0 1 0 0 0 0 1 0 0 0 0 1 0 0 0 1 0"/>
<feBlend mode="normal" in2="BackgroundImageFix" result="effect1_dropShadow_221_5450"/>
<feColorMatrix in="SourceAlpha" type="matrix" values="0 0 0 0 0 0 0 0 0 0 0 0 0 0 0 0 0 0 127 0" result="hardAlpha"/>
<feOffset/>
<feGaussianBlur stdDeviation="4"/>
<feColorMatrix type="matrix" values="0 0 0 0 0.270833 0 0 0 0 1 0 0 0 0 0.762597 0 0 0 1 0"/>
<feBlend mode="normal" in2="effect1_dropShadow_221_5450" result="effect2_dropShadow_221_5450"/>
<feColorMatrix in="SourceAlpha" type="matrix" values="0 0 0 0 0 0 0 0 0 0 0 0 0 0 0 0 0 0 127 0" result="hardAlpha"/>
<feOffset/>
<feGaussianBlur stdDeviation="6"/>
<feColorMatrix type="matrix" values="0 0 0 0 0.270588 0 0 0 0 1 0 0 0 0 0.760784 0 0 0 1 0"/>
<feBlend mode="normal" in2="effect2_dropShadow_221_5450" result="effect3_dropShadow_221_5450"/>
<feColorMatrix in="SourceAlpha" type="matrix" values="0 0 0 0 0 0 0 0 0 0 0 0 0 0 0 0 0 0 127 0" result="hardAlpha"/>
<feOffset/>
<feGaussianBlur stdDeviation="8"/>
<feColorMatrix type="matrix" values="0 0 0 0 0.270588 0 0 0 0 1 0 0 0 0 0.760784 0 0 0 1 0"/>
<feBlend mode="normal" in2="effect3_dropShadow_221_5450" result="effect4_dropShadow_221_5450"/>
<feBlend mode="normal" in="SourceGraphic" in2="effect4_dropShadow_221_5450" result="shape"/>
</filter>
<filter id="filter4_dddd_221_5450" x="-45.6769" y="123.384" width="443.748" height="162.256" filterUnits="userSpaceOnUse" color-interpolation-filters="sRGB">
<feFlood flood-opacity="0" result="BackgroundImageFix"/>
<feColorMatrix in="SourceAlpha" type="matrix" values="0 0 0 0 0 0 0 0 0 0 0 0 0 0 0 0 0 0 127 0" result="hardAlpha"/>
<feOffset/>
<feGaussianBlur stdDeviation="2"/>
<feColorMatrix type="matrix" values="0 0 0 0 1 0 0 0 0 1 0 0 0 0 1 0 0 0 1 0"/>
<feBlend mode="normal" in2="BackgroundImageFix" result="effect1_dropShadow_221_5450"/>
<feColorMatrix in="SourceAlpha" type="matrix" values="0 0 0 0 0 0 0 0 0 0 0 0 0 0 0 0 0 0 127 0" result="hardAlpha"/>
<feOffset/>
<feGaussianBlur stdDeviation="4"/>
<feColorMatrix type="matrix" values="0 0 0 0 0.270833 0 0 0 0 1 0 0 0 0 0.762597 0 0 0 1 0"/>
<feBlend mode="normal" in2="effect1_dropShadow_221_5450" result="effect2_dropShadow_221_5450"/>
<feColorMatrix in="SourceAlpha" type="matrix" values="0 0 0 0 0 0 0 0 0 0 0 0 0 0 0 0 0 0 127 0" result="hardAlpha"/>
<feOffset/>
<feGaussianBlur stdDeviation="6"/>
<feColorMatrix type="matrix" values="0 0 0 0 0.270588 0 0 0 0 1 0 0 0 0 0.760784 0 0 0 1 0"/>
<feBlend mode="normal" in2="effect2_dropShadow_221_5450" result="effect3_dropShadow_221_5450"/>
<feColorMatrix in="SourceAlpha" type="matrix" values="0 0 0 0 0 0 0 0 0 0 0 0 0 0 0 0 0 0 127 0" result="hardAlpha"/>
<feOffset/>
<feGaussianBlur stdDeviation="8"/>
<feColorMatrix type="matrix" values="0 0 0 0 0.270588 0 0 0 0 1 0 0 0 0 0.760784 0 0 0 1 0"/>
<feBlend mode="normal" in2="effect3_dropShadow_221_5450" result="effect4_dropShadow_221_5450"/>
<feBlend mode="normal" in="SourceGraphic" in2="effect4_dropShadow_221_5450" result="shape"/>
</filter>
<filter id="filter5_dddd_221_5450" x="-19.9601" y="133.473" width="392.088" height="145.913" filterUnits="userSpaceOnUse" color-interpolation-filters="sRGB">
<feFlood flood-opacity="0" result="BackgroundImageFix"/>
<feColorMatrix in="SourceAlpha" type="matrix" values="0 0 0 0 0 0 0 0 0 0 0 0 0 0 0 0 0 0 127 0" result="hardAlpha"/>
<feOffset/>
<feGaussianBlur stdDeviation="2"/>
<feColorMatrix type="matrix" values="0 0 0 0 1 0 0 0 0 1 0 0 0 0 1 0 0 0 1 0"/>
<feBlend mode="normal" in2="BackgroundImageFix" result="effect1_dropShadow_221_5450"/>
<feColorMatrix in="SourceAlpha" type="matrix" values="0 0 0 0 0 0 0 0 0 0 0 0 0 0 0 0 0 0 127 0" result="hardAlpha"/>
<feOffset/>
<feGaussianBlur stdDeviation="4"/>
<feColorMatrix type="matrix" values="0 0 0 0 0.270833 0 0 0 0 1 0 0 0 0 0.762597 0 0 0 1 0"/>
<feBlend mode="normal" in2="effect1_dropShadow_221_5450" result="effect2_dropShadow_221_5450"/>
<feColorMatrix in="SourceAlpha" type="matrix" values="0 0 0 0 0 0 0 0 0 0 0 0 0 0 0 0 0 0 127 0" result="hardAlpha"/>
<feOffset/>
<feGaussianBlur stdDeviation="6"/>
<feColorMatrix type="matrix" values="0 0 0 0 0.270588 0 0 0 0 1 0 0 0 0 0.760784 0 0 0 1 0"/>
<feBlend mode="normal" in2="effect2_dropShadow_221_5450" result="effect3_dropShadow_221_5450"/>
<feColorMatrix in="SourceAlpha" type="matrix" values="0 0 0 0 0 0 0 0 0 0 0 0 0 0 0 0 0 0 127 0" result="hardAlpha"/>
<feOffset/>
<feGaussianBlur stdDeviation="8"/>
<feColorMatrix type="matrix" values="0 0 0 0 0.270588 0 0 0 0 1 0 0 0 0 0.760784 0 0 0 1 0"/>
<feBlend mode="normal" in2="effect3_dropShadow_221_5450" result="effect4_dropShadow_221_5450"/>
<feBlend mode="normal" in="SourceGraphic" in2="effect4_dropShadow_221_5450" result="shape"/>
</filter>
<filter id="filter6_dddd_221_5450" x="-30.4719" y="121.056" width="413.112" height="152.564" filterUnits="userSpaceOnUse" color-interpolation-filters="sRGB">
<feFlood flood-opacity="0" result="BackgroundImageFix"/>
<feColorMatrix in="SourceAlpha" type="matrix" values="0 0 0 0 0 0 0 0 0 0 0 0 0 0 0 0 0 0 127 0" result="hardAlpha"/>
<feOffset/>
<feGaussianBlur stdDeviation="2"/>
<feColorMatrix type="matrix" values="0 0 0 0 1 0 0 0 0 1 0 0 0 0 1 0 0 0 1 0"/>
<feBlend mode="normal" in2="BackgroundImageFix" result="effect1_dropShadow_221_5450"/>
<feColorMatrix in="SourceAlpha" type="matrix" values="0 0 0 0 0 0 0 0 0 0 0 0 0 0 0 0 0 0 127 0" result="hardAlpha"/>
<feOffset/>
<feGaussianBlur stdDeviation="4"/>
<feColorMatrix type="matrix" values="0 0 0 0 0.270833 0 0 0 0 1 0 0 0 0 0.762597 0 0 0 1 0"/>
<feBlend mode="normal" in2="effect1_dropShadow_221_5450" result="effect2_dropShadow_221_5450"/>
<feColorMatrix in="SourceAlpha" type="matrix" values="0 0 0 0 0 0 0 0 0 0 0 0 0 0 0 0 0 0 127 0" result="hardAlpha"/>
<feOffset/>
<feGaussianBlur stdDeviation="6"/>
<feColorMatrix type="matrix" values="0 0 0 0 0.270588 0 0 0 0 1 0 0 0 0 0.760784 0 0 0 1 0"/>
<feBlend mode="normal" in2="effect2_dropShadow_221_5450" result="effect3_dropShadow_221_5450"/>
<feColorMatrix in="SourceAlpha" type="matrix" values="0 0 0 0 0 0 0 0 0 0 0 0 0 0 0 0 0 0 127 0" result="hardAlpha"/>
<feOffset/>
<feGaussianBlur stdDeviation="8"/>
<feColorMatrix type="matrix" values="0 0 0 0 0.270588 0 0 0 0 1 0 0 0 0 0.760784 0 0 0 1 0"/>
<feBlend mode="normal" in2="effect3_dropShadow_221_5450" result="effect4_dropShadow_221_5450"/>
<feBlend mode="normal" in="SourceGraphic" in2="effect4_dropShadow_221_5450" result="shape"/>
</filter>
<filter id="filter7_dddd_221_5450" x="-28.4276" y="144.06" width="408.797" height="151.199" filterUnits="userSpaceOnUse" color-interpolation-filters="sRGB">
<feFlood flood-opacity="0" result="BackgroundImageFix"/>
<feColorMatrix in="SourceAlpha" type="matrix" values="0 0 0 0 0 0 0 0 0 0 0 0 0 0 0 0 0 0 127 0" result="hardAlpha"/>
<feOffset/>
<feGaussianBlur stdDeviation="2"/>
<feColorMatrix type="matrix" values="0 0 0 0 1 0 0 0 0 1 0 0 0 0 1 0 0 0 1 0"/>
<feBlend mode="normal" in2="BackgroundImageFix" result="effect1_dropShadow_221_5450"/>
<feColorMatrix in="SourceAlpha" type="matrix" values="0 0 0 0 0 0 0 0 0 0 0 0 0 0 0 0 0 0 127 0" result="hardAlpha"/>
<feOffset/>
<feGaussianBlur stdDeviation="4"/>
<feColorMatrix type="matrix" values="0 0 0 0 0.270833 0 0 0 0 1 0 0 0 0 0.762597 0 0 0 1 0"/>
<feBlend mode="normal" in2="effect1_dropShadow_221_5450" result="effect2_dropShadow_221_5450"/>
<feColorMatrix in="SourceAlpha" type="matrix" values="0 0 0 0 0 0 0 0 0 0 0 0 0 0 0 0 0 0 127 0" result="hardAlpha"/>
<feOffset/>
<feGaussianBlur stdDeviation="6"/>
<feColorMatrix type="matrix" values="0 0 0 0 0.270588 0 0 0 0 1 0 0 0 0 0.760784 0 0 0 1 0"/>
<feBlend mode="normal" in2="effect2_dropShadow_221_5450" result="effect3_dropShadow_221_5450"/>
<feColorMatrix in="SourceAlpha" type="matrix" values="0 0 0 0 0 0 0 0 0 0 0 0 0 0 0 0 0 0 127 0" result="hardAlpha"/>
<feOffset/>
<feGaussianBlur stdDeviation="8"/>
<feColorMatrix type="matrix" values="0 0 0 0 0.270588 0 0 0 0 1 0 0 0 0 0.760784 0 0 0 1 0"/>
<feBlend mode="normal" in2="effect3_dropShadow_221_5450" result="effect4_dropShadow_221_5450"/>
<feBlend mode="normal" in="SourceGraphic" in2="effect4_dropShadow_221_5450" result="shape"/>
</filter>
<filter id="filter8_f_221_5450" x="-30.0745" y="41.7065" width="402.484" height="333.866" filterUnits="userSpaceOnUse" color-interpolation-filters="sRGB">
<feFlood flood-opacity="0" result="BackgroundImageFix"/>
<feBlend mode="normal" in="SourceGraphic" in2="BackgroundImageFix" result="shape"/>
<feGaussianBlur stdDeviation="28" result="effect1_foregroundBlur_221_5450"/>
</filter>
<filter id="filter9_f_221_5450" x="-174.074" y="-102.293" width="690.484" height="621.866" filterUnits="userSpaceOnUse" color-interpolation-filters="sRGB">
<feFlood flood-opacity="0" result="BackgroundImageFix"/>
<feBlend mode="normal" in="SourceGraphic" in2="BackgroundImageFix" result="shape"/>
<feGaussianBlur stdDeviation="100" result="effect1_foregroundBlur_221_5450"/>
</filter>
<linearGradient id="paint0_linear_221_5450" x1="108.477" y1="0" x2="108.477" y2="119.934" gradientUnits="userSpaceOnUse">
<stop stop-color="#D9D9D9" stop-opacity="0"/>
<stop offset="1" stop-color="#D9D9D9"/>
</linearGradient>
<linearGradient id="paint1_linear_221_5450" x1="97.2278" y1="0" x2="97.2278" y2="107.309" gradientUnits="userSpaceOnUse">
<stop stop-color="#D9D9D9" stop-opacity="0"/>
<stop offset="1" stop-color="#D9D9D9"/>
</linearGradient>
<linearGradient id="paint2_linear_221_5450" x1="110.888" y1="0" x2="110.888" y2="122.038" gradientUnits="userSpaceOnUse">
<stop stop-color="#D9D9D9" stop-opacity="0"/>
<stop offset="1" stop-color="#D9D9D9"/>
</linearGradient>
<linearGradient id="paint3_linear_221_5450" x1="107.674" y1="0" x2="107.674" y2="117.83" gradientUnits="userSpaceOnUse">
<stop stop-color="#D9D9D9" stop-opacity="0"/>
<stop offset="1" stop-color="#D9D9D9"/>
</linearGradient>
<linearGradient id="paint4_linear_221_5450" x1="149.392" y1="0" x2="149.392" y2="96.4243" gradientUnits="userSpaceOnUse">
<stop stop-color="#D9D9D9" stop-opacity="0"/>
<stop offset="1" stop-color="#D9D9D9"/>
</linearGradient>
<linearGradient id="paint5_linear_221_5450" x1="140.975" y1="0" x2="140.975" y2="89.996" gradientUnits="userSpaceOnUse">
<stop stop-color="#D9D9D9" stop-opacity="0"/>
<stop offset="1" stop-color="#D9D9D9"/>
</linearGradient>
<linearGradient id="paint6_linear_221_5450" x1="140.975" y1="0" x2="140.975" y2="89.996" gradientUnits="userSpaceOnUse">
<stop stop-color="#D9D9D9" stop-opacity="0"/>
<stop offset="1" stop-color="#D9D9D9"/>
</linearGradient>
<linearGradient id="paint7_linear_221_5450" x1="140.975" y1="0" x2="140.975" y2="89.996" gradientUnits="userSpaceOnUse">
<stop stop-color="#D9D9D9" stop-opacity="0"/>
<stop offset="1" stop-color="#D9D9D9"/>
</linearGradient>
<linearGradient id="paint8_linear_221_5450" x1="16.3251" y1="219.528" x2="341.81" y2="219.528" gradientUnits="userSpaceOnUse">
<stop stop-color="#00FF65"/>
<stop offset="1" stop-color="#00FF65" stop-opacity="0"/>
</linearGradient>
<linearGradient id="paint9_linear_221_5450" x1="16.3251" y1="219.528" x2="341.81" y2="219.528" gradientUnits="userSpaceOnUse">
<stop stop-color="#00FF65"/>
<stop offset="1" stop-color="#00FF65" stop-opacity="0"/>
</linearGradient>
</defs>
</svg>
