<svg width="24" height="25" viewBox="0 0 24 25" fill="none" xmlns="http://www.w3.org/2000/svg">
<path d="M15.75 0.599609L24 4.72461V13.9238L22.5 13.1738V6.40039L16.5 9.40039V12.4238L15 13.1738V9.40039L9 6.40039V9.06055L7.5 8.31055V4.72461L15.75 0.599609ZM15.75 8.09961L17.8242 7.05664L12.3984 3.95117L9.92578 5.19336L15.75 8.09961ZM19.4414 6.25977L21.5742 5.19336L15.75 2.27539L14.0039 3.1543L19.4414 6.25977ZM13.5 13.9238L12 14.6738V14.6621L7.5 16.9121V22.2441L12 19.9824V21.6699L6.75 24.2949L0 20.9082V12.9863L6.75 9.61133L13.5 12.9863V13.9238ZM6 22.2441V16.9121L1.5 14.6621V19.9824L6 22.2441ZM6.75 15.6113L11.0742 13.4551L6.75 11.2871L2.42578 13.4551L6.75 15.6113ZM13.5 15.5996L18.75 12.9746L24 15.5996V21.7754L18.75 24.4004L13.5 21.7754V15.5996ZM18 22.3496V18.7754L15 17.2754V20.8496L18 22.3496ZM22.5 20.8496V17.2754L19.5 18.7754V22.3496L22.5 20.8496ZM18.75 17.4746L21.5742 16.0566L18.75 14.6504L15.9258 16.0566L18.75 17.4746Z" fill="url(#paint0_linear_159_1584)"/>
<defs>
<linearGradient id="paint0_linear_159_1584" x1="0" y1="12.5" x2="24" y2="12.5" gradientUnits="userSpaceOnUse">
<stop stop-color="#16D0E0"/>
<stop offset="1" stop-color="#112363"/>
</linearGradient>
</defs>
</svg>
