<svg width="29" height="28" viewBox="0 0 29 28" fill="none" xmlns="http://www.w3.org/2000/svg">
<path d="M17.875 20.5V23.75C17.875 24.612 17.5787 25.4386 17.0512 26.0481C16.5238 26.6576 15.8084 27 15.0625 27H3.8125C3.06658 27 2.35121 26.6576 1.82376 26.0481C1.29632 25.4386 1 24.612 1 23.75V4.25C1 3.38805 1.29632 2.5614 1.82376 1.9519C2.35121 1.34241 3.06658 1 3.8125 1H14.5C16.0532 1 17.875 2.45519 17.875 4.25V7.5M22.375 20.5L28 14L22.375 7.5M8.875 14H26.875" stroke="url(#paint0_linear_550_2266)" stroke-width="2" stroke-linecap="round" stroke-linejoin="round"/>
<defs>
<linearGradient id="paint0_linear_550_2266" x1="1" y1="14" x2="28" y2="14" gradientUnits="userSpaceOnUse">
<stop stop-color="#16D0E0"/>
<stop offset="1" stop-color="#112363"/>
</linearGradient>
</defs>
</svg>
