<svg width="98" height="94" viewBox="0 0 98 94" fill="none" xmlns="http://www.w3.org/2000/svg">
<path d="M65.5 61.3333C65.5 56.7292 52.4417 53 36.3333 53M65.5 61.3333C65.5 65.9375 52.4417 69.6667 36.3333 69.6667C20.225 69.6667 7.16667 65.9375 7.16667 61.3333M65.5 61.3333V81.9042C65.5 86.65 52.4417 90.5 36.3333 90.5C20.225 90.5 7.16667 86.6542 7.16667 81.9042V61.3333M65.5 61.3333C81.4333 61.3333 94.6667 57.2208 94.6667 53V11.3333M36.3333 53C20.225 53 7.16667 56.7292 7.16667 61.3333M36.3333 53C17.925 53 3 48.8875 3 44.6667V23.8333M36.3333 15.5C17.925 15.5 3 19.2292 3 23.8333M3 23.8333C3 28.4375 17.925 32.1667 36.3333 32.1667C36.3333 36.3875 49.8875 40.5 65.8208 40.5C81.7542 40.5 94.6667 36.3875 94.6667 32.1667M94.6667 11.3333C94.6667 6.72917 81.75 3 65.8208 3C49.8917 3 36.975 6.72917 36.975 11.3333M94.6667 11.3333C94.6667 15.9375 81.75 19.6667 65.8208 19.6667C49.8917 19.6667 36.975 15.9375 36.975 11.3333M36.975 11.3333V53.6917" stroke="white" stroke-width="6"/>
</svg>
