<svg width="94" height="94" viewBox="0 0 94 94" fill="none" xmlns="http://www.w3.org/2000/svg">
<path d="M62.75 81.5C63.6289 81.5 64.4427 81.6628 65.1914 81.9883C65.9401 82.3138 66.5911 82.7533 67.1445 83.3066C67.6979 83.86 68.1536 84.5273 68.5117 85.3086C68.8698 86.0898 69.0326 86.9036 69 87.75C69 88.6289 68.8372 89.4427 68.5117 90.1914C68.1862 90.9401 67.7467 91.5911 67.1934 92.1445C66.64 92.6979 65.9727 93.1536 65.1914 93.5117C64.4102 93.8698 63.5964 94.0326 62.75 94C61.8711 94 61.0573 93.8372 60.3086 93.5117C59.5599 93.1862 58.9089 92.7467 58.3555 92.1934C57.8021 91.64 57.3464 90.9727 56.9883 90.1914C56.6302 89.4102 56.4674 88.5964 56.5 87.75C56.5 86.8711 56.6628 86.0573 56.9883 85.3086C57.3138 84.5599 57.7533 83.9089 58.3066 83.3555C58.86 82.8021 59.5273 82.3464 60.3086 81.9883C61.0898 81.6302 61.9036 81.4674 62.75 81.5ZM37.75 94C37.75 89.6706 38.5638 85.6178 40.1914 81.8418C41.819 78.0658 44.0488 74.7454 46.8809 71.8809C49.7129 69.0163 53.0169 66.7865 56.793 65.1914C60.569 63.5964 64.638 62.7826 69 62.75V69C65.5495 69 62.3105 69.651 59.2832 70.9531C56.2559 72.2552 53.6191 74.0456 51.373 76.3242C49.127 78.6029 47.3366 81.2559 46.002 84.2832C44.6673 87.3105 44 90.5495 44 94H37.75ZM19 94C19 89.4102 19.5859 84.9831 20.7578 80.7188C21.9297 76.4544 23.6061 72.4668 25.7871 68.7559C27.9681 65.0449 30.5723 61.6758 33.5996 58.6484C36.627 55.6211 40.0124 53.0169 43.7559 50.8359C47.4993 48.6549 51.4707 46.9785 55.6699 45.8066C59.8691 44.6348 64.3125 44.0326 69 44V50.25C64.9635 50.25 61.0898 50.7708 57.3789 51.8125C53.668 52.8542 50.2012 54.319 46.9785 56.207C43.7559 58.0951 40.7936 60.39 38.0918 63.0918C35.39 65.7936 33.1113 68.7396 31.2559 71.9297C29.4004 75.1198 27.9193 78.6029 26.8125 82.3789C25.7057 86.1549 25.1849 90.0286 25.25 94H19ZM94 37.75H81.5V94H75.25V37.75H62.75V0.25H94V37.75ZM69 6.5V12.75H87.75V6.5H69ZM87.75 31.5V19H81.5V25.25H75.25V19H69V31.5H87.75ZM56.5 32.7695C51.6497 33.7786 47.0599 35.2923 42.7305 37.3105C38.401 39.3288 34.3646 41.7865 30.6211 44.6836C26.8776 47.5807 23.541 50.8522 20.6113 54.498C17.6816 58.1439 15.1426 62.0664 12.9941 66.2656C10.8457 70.4648 9.25065 74.8919 8.20898 79.5469C7.16732 84.2018 6.59766 89.0195 6.5 94H0.25C0.25 88.4987 0.884766 83.1439 2.1543 77.9355C3.42383 72.7272 5.23047 67.7956 7.57422 63.1406C9.91797 58.4857 12.7826 54.14 16.168 50.1035C19.5534 46.0671 23.3132 42.4701 27.4473 39.3125C31.5814 36.1549 36.1061 33.4694 41.0215 31.2559C45.9368 29.0423 51.0964 27.431 56.5 26.4219V32.7695Z" fill="white"/>
</svg>
