<svg width="24" height="24" viewBox="0 0 24 24" fill="none" xmlns="http://www.w3.org/2000/svg">
<path d="M12 22C17.5228 22 22 17.5228 22 12C22 6.47715 17.5228 2 12 2C6.47715 2 2 6.47715 2 12C2 17.5228 6.47715 22 12 22Z" stroke="url(#paint0_linear_550_2146)" stroke-width="2" stroke-linecap="round" stroke-linejoin="round"/>
<path d="M9.08997 9.00008C9.32507 8.33175 9.78912 7.76819 10.3999 7.40921C11.0107 7.05024 11.7289 6.91902 12.4271 7.03879C13.1254 7.15857 13.7588 7.52161 14.215 8.06361C14.6713 8.60561 14.921 9.2916 14.92 10.0001C14.92 12.0001 11.92 13.0001 11.92 13.0001" stroke="url(#paint1_linear_550_2146)" stroke-width="2" stroke-linecap="round" stroke-linejoin="round"/>
<path d="M12 17H12.01" stroke="url(#paint2_linear_550_2146)" stroke-width="2" stroke-linecap="round" stroke-linejoin="round"/>
<defs>
<linearGradient id="paint0_linear_550_2146" x1="2" y1="12" x2="22" y2="12" gradientUnits="userSpaceOnUse">
<stop stop-color="#16D0E0"/>
<stop offset="1" stop-color="#112363"/>
</linearGradient>
<linearGradient id="paint1_linear_550_2146" x1="9.08997" y1="9.99784" x2="14.92" y2="9.99784" gradientUnits="userSpaceOnUse">
<stop stop-color="#16D0E0"/>
<stop offset="1" stop-color="#112363"/>
</linearGradient>
<linearGradient id="paint2_linear_550_2146" x1="12" y1="17.5" x2="12.01" y2="17.5" gradientUnits="userSpaceOnUse">
<stop stop-color="#16D0E0"/>
<stop offset="1" stop-color="#112363"/>
</linearGradient>
</defs>
</svg>
